<svg width="480" height="183" viewBox="0 0 480 183" fill="none" xmlns="http://www.w3.org/2000/svg">
<rect width="480" height="183" fill="#f8f8f8"/>
<path d="M46.0474 97.3906C46.1909 97.395 46.3339 97.37 46.4674 97.3171C46.601 97.2642 46.7223 97.1845 46.8238 97.083L58.7221 85.1847C58.8236 85.0832 58.9033 84.9619 58.9562 84.8283C59.0091 84.6948 59.034 84.5518 59.0295 84.4082C59.025 84.2647 58.9912 84.1235 58.9301 83.9936C58.8689 83.8636 58.7818 83.7475 58.6741 83.6525L33.3904 61.3433C33.2366 61.2074 33.0463 61.1197 32.8431 61.0911L27.985 60.3968L26.0019 58.4137L26.7456 57.6701C26.9428 57.4729 27.0536 57.2054 27.0536 56.9264C27.0536 56.6475 26.9428 56.38 26.7456 56.1828L23.771 53.2082C23.5738 53.011 23.3063 52.9002 23.0274 52.9002C22.7484 52.9002 22.481 53.011 22.2837 53.2082L14.8473 60.6446C14.6501 60.8419 14.5393 61.1094 14.5393 61.3883C14.5393 61.6672 14.6501 61.9347 14.8473 62.1319L17.8219 65.1065C18.0191 65.3037 18.2866 65.4145 18.5655 65.4145C18.8445 65.4145 19.1119 65.3037 19.3092 65.1065L20.0528 64.3628L22.0359 66.3459L22.7299 71.2043C22.7585 71.4075 22.8462 71.5978 22.9821 71.7515L45.2913 97.0353C45.3864 97.143 45.5025 97.2301 45.6325 97.2912C45.7626 97.3523 45.9038 97.3861 46.0474 97.3906ZM46.1282 94.8041L44.7338 93.2239L54.8629 83.0947L56.4432 84.4891L46.1282 94.8041ZM24.1428 66.2219L27.861 62.5037L30.4638 62.8756L24.5146 68.8247L24.1428 66.2219ZM32.7397 63.5742L53.2827 81.7004L43.3395 91.6436L25.2133 71.1006L32.7397 63.5742ZM17.0783 61.3883L23.0274 55.4392L24.5146 56.9264L18.5655 62.8756L17.0783 61.3883ZM24.5146 59.901L26.0019 61.3883L23.0274 64.3628L21.5401 62.8756L24.5146 59.901Z" fill="#0D1F2D"/>
<path d="M39.8607 32.1159C37.6249 29.8802 35.6916 30.5018 33.8219 31.103C33.1661 31.3299 32.4953 31.5105 31.8143 31.6435C29.0112 32.1356 26.8413 29.5205 26.8214 29.4962C26.6909 29.3339 26.5151 29.214 26.3164 29.1517C26.1176 29.0894 25.9048 29.0876 25.705 29.1464C25.5052 29.2052 25.3273 29.322 25.194 29.482C25.0606 29.642 24.9778 29.838 24.956 30.0452C24.9134 30.4502 23.9574 40.0091 27.9625 44.0142C30.4915 46.5432 33.4676 47.4243 36.2432 46.6482C39.0809 50.2515 42.7982 54.388 46.8238 58.4137C51.8278 63.4177 56.8509 67.8154 60.9678 70.7965C63.0057 72.2723 64.7264 73.3306 66.0818 73.9419C66.7436 74.2405 68.7577 75.1491 69.8767 74.0301C70.1534 73.7534 70.9957 72.9112 69.7885 70.2353C69.1769 68.8801 68.1189 67.1593 66.643 65.1213C63.6619 61.0044 59.2642 55.9813 54.2602 50.9773C50.2346 46.9516 46.0981 43.2344 42.4947 40.3965C43.2708 37.6211 42.3899 34.6451 39.8607 32.1159ZM64.4353 65.6685C67.7766 70.155 68.256 71.9315 68.313 72.4665C67.778 72.4095 66.0016 71.9301 61.515 68.5887C57.6201 65.6879 52.931 61.5463 48.3111 56.9264C46.2736 54.8889 44.319 52.8248 42.52 50.8193L46.6658 46.6735C48.6716 48.4722 50.7354 50.427 52.773 52.4646C57.3928 57.0845 61.5344 61.7736 64.4353 65.6685ZM45.0856 45.2792L41.1257 49.2391C40.0926 48.0494 39.1237 46.8895 38.2375 45.7788C39.6174 44.9314 40.7781 43.7707 41.6255 42.3908C42.7362 43.277 43.896 44.246 45.0856 45.2792ZM38.6438 42.7973C35.85 45.5911 32.413 45.4901 29.4497 42.5269C27.2997 40.3768 26.8854 35.5656 26.9324 32.3992C28.1736 33.2685 30.0014 34.0973 32.178 33.7151C32.9541 33.5662 33.7188 33.3626 34.4663 33.1059C36.1837 32.5529 37.046 32.2758 38.3734 33.6032C41.3366 36.5664 41.4377 40.0034 38.6438 42.7973Z" fill="#0D1F2D"/>
<path d="M36.4129 39.0791C34.5691 40.9229 32.9687 40.0968 31.9511 39.0791C31.7539 38.8819 31.4864 38.7711 31.2074 38.7711C30.9285 38.7711 30.661 38.8819 30.4638 39.0791C30.2666 39.2763 30.1558 39.5438 30.1558 39.8227C30.1558 40.1016 30.2666 40.3691 30.4638 40.5664C32.2613 42.3638 35.1588 43.3078 37.9002 40.5664C38.0974 40.3691 38.2082 40.1016 38.2082 39.8227C38.2082 39.5438 38.0974 39.2763 37.9002 39.0791C37.703 38.8819 37.4355 38.7711 37.1566 38.7711C36.8776 38.7711 36.6101 38.8819 36.4129 39.0791Z" fill="#0D1F2D"/>
<path d="M53.5166 21.9754C53.4425 21.9012 53.3577 21.8386 53.265 21.7896L40.6231 15.0968C40.4244 14.9916 40.1971 14.9529 39.9747 14.9864C39.7523 15.0198 39.5465 15.1237 39.3875 15.2827C39.2285 15.4417 39.1246 15.6475 39.0912 15.8699C39.0577 16.0923 39.0965 16.3195 39.2017 16.5183L45.8944 29.1602C45.9434 29.2528 46.0061 29.3377 46.0802 29.4118C48.235 31.5666 51.3171 32.0898 53.4268 30.8093L56.4912 33.8736L55.0039 35.3609C54.8067 35.5581 54.6959 35.8256 54.6959 36.1045C54.6959 36.3835 54.8067 36.651 55.0039 36.8482L78.0567 59.901C78.8456 60.6899 79.9156 61.1331 81.0313 61.1331C82.147 61.1331 83.217 60.6899 84.0059 59.901C84.7948 59.1121 85.2379 58.0421 85.2379 56.9264C85.2379 55.8108 84.7947 54.7408 84.0058 53.9519L60.953 30.8991C60.7558 30.7018 60.4883 30.591 60.2094 30.591C59.9305 30.591 59.663 30.7018 59.4657 30.8991L57.9785 32.3863L54.9141 29.322C56.1947 27.2123 55.6714 24.1302 53.5166 21.9754ZM82.5186 55.4392C82.913 55.8336 83.1346 56.3686 83.1346 56.9264C83.1346 57.4843 82.913 58.0193 82.5186 58.4137C82.1241 58.8082 81.5891 59.0298 81.0313 59.0298C80.4735 59.0298 79.9385 58.8082 79.544 58.4137L57.2348 36.1045L60.2094 33.13L82.5186 55.4392ZM47.6761 28.0303L42.6595 18.5547L52.1348 23.571C53.6835 25.2046 53.9762 27.4649 52.773 28.6681C51.5698 29.8714 49.3094 29.5786 47.6761 28.0303Z" fill="#0D1F2D"/>
<path d="M154.139 78.5058C141.025 91.6193 119.675 91.6072 106.546 78.4782C93.4323 65.3646 93.4323 44.0264 106.546 30.9129C119.675 17.7839 141.025 17.7717 154.139 30.8853C167.268 44.0142 167.268 65.3768 154.139 78.5058ZM108.175 32.5422C95.9595 44.7578 95.9595 64.6332 108.175 76.8489C120.406 89.0799 140.294 89.0921 152.509 76.8765C164.741 64.6454 164.741 44.7457 152.509 32.5146C140.294 20.2989 120.406 20.3111 108.175 32.5422Z" fill="#0D1F2D"/>
<path d="M155.306 77.2843C154.975 77.6149 154.461 77.7234 154.011 77.5167C153.433 77.2511 153.18 76.5674 153.444 75.9884C156.314 69.74 153.681 60.4832 146.399 51.2274C137.431 39.8255 121.339 28.9903 109.184 31.3642C108.56 31.4862 107.954 31.0789 107.832 30.4546C107.71 29.8307 108.118 29.2246 108.742 29.1035C121.935 26.5262 138.583 37.5657 148.21 49.802C156.153 59.9005 158.825 69.7943 155.539 76.9504C155.48 77.0785 155.401 77.1898 155.306 77.2843Z" fill="#0D1F2D"/>
<path d="M127.342 33.4354C125.08 35.6979 121.676 38.1101 116.666 40.5793C105.273 46.1515 99.6797 51.4177 99.0577 57.154C98.9899 57.7867 98.4203 58.2432 97.7885 58.1754C97.1557 58.1066 96.6988 57.5384 96.7671 56.9062C97.4934 50.2182 103.317 44.5455 115.651 38.5118C121.769 35.4964 131.581 29.4285 128.545 22.6695C128.285 22.0896 128.549 21.4036 129.123 21.1473C129.704 20.8863 130.386 21.1454 130.646 21.7258C131.775 24.2385 132.302 28.4764 127.342 33.4354Z" fill="#0D1F2D"/>
<path d="M110.998 81.0311C110.893 81.1368 110.764 81.2242 110.617 81.2836C110.027 81.5221 109.355 81.2378 109.116 80.6481C106.097 73.1913 114.518 57.4233 124.201 45.1053C131.739 35.5164 142.115 25.611 148.632 26.5697C149.261 26.6623 149.696 27.2483 149.603 27.8778C149.512 28.5086 148.926 28.9407 148.296 28.8491C143.802 28.1859 134.848 35.2896 126.012 46.5293C115.218 60.2606 109.01 74.2463 111.252 79.7839C111.431 80.2263 111.316 80.7136 110.998 81.0311Z" fill="#0D1F2D"/>
<path d="M133.315 87.9258C133.024 88.2176 132.584 88.3429 132.161 88.212C131.553 88.0249 131.212 87.3805 131.399 86.7725C133.494 79.9677 134.218 72.7078 133.552 65.1949C132.571 53.8388 134.185 46.3128 138.633 41.5062C141.799 38.0993 145.191 36.513 148.749 36.7361C153.461 37.0331 158.282 40.5658 163.081 47.2355C163.454 47.7518 163.329 48.4822 162.819 48.8423C162.303 49.2146 161.584 49.0977 161.213 48.5804C156.835 42.499 152.593 39.2872 148.604 39.0356C145.768 38.8565 142.996 40.2108 140.321 43.0729C136.349 47.3669 134.926 54.3336 135.846 64.9938C136.539 72.8032 135.783 80.3591 133.602 87.4506C133.544 87.6358 133.444 87.7972 133.315 87.9258Z" fill="#0D1F2D"/>
<path d="M213.888 97.083C214.48 97.6737 215.283 98.0055 216.119 98.0055C216.956 98.0055 217.758 97.6737 218.35 97.083L239.172 76.2611C239.763 75.6689 240.094 74.8666 240.094 74.0301C240.094 73.1937 239.763 72.3914 239.172 71.7992L199.015 31.6427C198.423 31.0519 197.621 30.7201 196.784 30.7201C195.948 30.7201 195.146 31.0519 194.554 31.6427L173.732 52.4646C173.141 53.0568 172.809 53.8591 172.809 54.6955C172.809 55.532 173.141 56.3343 173.732 56.9264L213.888 97.083ZM197.528 33.13L237.685 73.2865C237.882 73.4839 237.992 73.7513 237.992 74.0301C237.992 74.309 237.882 74.5764 237.685 74.7738L219.094 93.3648L177.45 51.721L196.041 33.13C196.238 32.933 196.506 32.8224 196.784 32.8224C197.063 32.8224 197.331 32.933 197.528 33.13ZM175.219 55.4392C175.022 55.2418 174.911 54.9743 174.911 54.6955C174.911 54.4167 175.022 54.1493 175.219 53.9519L175.963 53.2082L217.606 94.852L216.863 95.5957C216.665 95.7926 216.398 95.9032 216.119 95.9032C215.84 95.9032 215.573 95.7926 215.375 95.5957L175.219 55.4392Z" fill="#0D1F2D"/>
<path d="M199.015 62.8756C198.818 63.0728 198.707 63.3403 198.707 63.6192C198.707 63.8981 198.818 64.1656 199.015 64.3628C199.213 64.5601 199.48 64.6709 199.759 64.6709C200.038 64.6709 200.305 64.5601 200.503 64.3628C200.842 64.0211 201.119 63.6219 201.319 63.1836H204.221C204.5 63.1836 204.767 63.0728 204.965 62.8756C205.162 62.6783 205.273 62.4108 205.273 62.1319C205.273 61.853 205.162 61.5855 204.965 61.3883C204.767 61.191 204.5 61.0802 204.221 61.0802H201.768C201.774 60.538 201.722 59.9967 201.613 59.4655L206.452 59.4654C206.731 59.4654 206.998 59.3546 207.195 59.1574C207.393 58.9602 207.503 58.6926 207.503 58.4137C207.503 58.1348 207.393 57.8673 207.195 57.6701C206.998 57.4728 206.731 57.362 206.452 57.362H200.943C200.759 56.9347 200.552 56.5173 200.324 56.1115L203.81 54.9496C204.072 54.8598 204.289 54.6699 204.412 54.4212C204.535 54.1725 204.555 53.8852 204.467 53.622C204.379 53.3587 204.191 53.1408 203.943 53.0157C203.696 52.8906 203.409 52.8685 203.145 52.9542L199.126 54.2938C198.853 53.9346 198.562 53.5795 198.25 53.2296L201.246 50.2337C201.444 50.0365 201.554 49.769 201.554 49.4901C201.554 49.2111 201.444 48.9436 201.246 48.7464C201.049 48.5492 200.782 48.4384 200.503 48.4384C200.224 48.4384 199.956 48.5492 199.759 48.7464L196.763 51.7423C196.414 51.43 196.058 51.1394 195.699 50.8669L197.038 46.848C197.083 46.7167 197.102 46.5777 197.093 46.4392C197.084 46.3007 197.047 46.1654 196.986 46.041C196.924 45.9166 196.839 45.8057 196.734 45.7145C196.629 45.6234 196.508 45.5539 196.376 45.51C196.244 45.4661 196.105 45.4487 195.967 45.4588C195.828 45.469 195.693 45.5064 195.569 45.5689C195.445 45.6315 195.335 45.718 195.245 45.8234C195.155 45.9287 195.086 46.051 195.043 46.183L193.881 49.6688C193.475 49.4407 193.058 49.2339 192.631 49.0493V43.5409C192.631 43.262 192.52 42.9945 192.323 42.7973C192.125 42.6 191.858 42.4892 191.579 42.4892C191.3 42.4892 191.033 42.6 190.835 42.7973C190.638 42.9945 190.527 43.262 190.527 43.5409L190.527 48.3799C189.996 48.2708 189.455 48.2188 188.912 48.2246L188.912 45.7719C188.912 45.6337 188.885 45.497 188.832 45.3694C188.78 45.2418 188.702 45.1259 188.604 45.0282C188.507 44.9305 188.391 44.8531 188.263 44.8002C188.136 44.7474 187.999 44.7202 187.861 44.7202C187.723 44.7202 187.586 44.7474 187.458 44.8002C187.331 44.8531 187.215 44.9305 187.117 45.0282C187.019 45.1259 186.942 45.2418 186.889 45.3694C186.836 45.497 186.809 45.6337 186.809 45.7719V48.6737C186.371 48.874 185.972 49.1504 185.63 49.49C185.433 49.6873 185.322 49.9548 185.322 50.2337C185.322 50.5126 185.433 50.7801 185.63 50.9773C185.827 51.1746 186.095 51.2854 186.374 51.2854C186.652 51.2854 186.92 51.1746 187.117 50.9773C187.818 50.2766 189.114 50.1302 190.674 50.576C192.471 51.0889 194.377 52.288 196.041 53.9519C197.705 55.6158 198.904 57.5214 199.417 59.3186C199.862 60.8782 199.716 62.1749 199.015 62.8756Z" fill="#0D1F2D"/>
<path d="M207.939 71.7992C208.64 71.0985 209.936 70.9521 211.496 71.3979C213.293 71.9108 215.199 73.1099 216.863 74.7738C218.527 76.4377 219.726 78.3433 220.239 80.1405C220.684 81.7001 220.538 82.9968 219.837 83.6975C219.64 83.8947 219.529 84.1622 219.529 84.4411C219.529 84.72 219.64 84.9875 219.837 85.1847C220.035 85.382 220.302 85.4928 220.581 85.4928C220.86 85.4928 221.127 85.382 221.325 85.1847C221.664 84.843 221.941 84.4438 222.141 84.0055H225.043C225.181 84.0055 225.318 83.9783 225.445 83.9255C225.573 83.8726 225.689 83.7951 225.786 83.6975C225.884 83.5998 225.962 83.4839 226.014 83.3563C226.067 83.2287 226.094 83.0919 226.094 82.9538C226.094 82.8157 226.067 82.679 226.014 82.5514C225.962 82.4238 225.884 82.3078 225.786 82.2102C225.689 82.1125 225.573 82.035 225.445 81.9822C225.318 81.9293 225.181 81.9021 225.043 81.9021H222.59C222.596 81.3599 222.544 80.8186 222.435 80.2874L227.274 80.2873C227.412 80.2873 227.549 80.2601 227.676 80.2073C227.804 80.1544 227.92 80.0769 228.017 79.9793C228.115 79.8816 228.192 79.7657 228.245 79.6381C228.298 79.5105 228.325 79.3737 228.325 79.2356C228.325 79.0975 228.298 78.9608 228.245 78.8332C228.192 78.7056 228.115 78.5896 228.017 78.492C227.92 78.3943 227.804 78.3168 227.676 78.264C227.549 78.2111 227.412 78.1839 227.274 78.1839H221.765C221.581 77.7566 221.374 77.3392 221.146 76.9334L224.632 75.7715C224.894 75.6817 225.111 75.4918 225.234 75.2431C225.357 74.9944 225.377 74.7071 225.289 74.4439C225.201 74.1806 225.013 73.9627 224.765 73.8376C224.518 73.7125 224.231 73.6904 223.967 73.7761L219.948 75.1157C219.675 74.7565 219.384 74.4014 219.072 74.0515L222.068 71.0556C222.265 70.8584 222.376 70.5909 222.376 70.312C222.376 70.033 222.265 69.7655 222.068 69.5683C221.871 69.3711 221.603 69.2603 221.325 69.2603C221.046 69.2603 220.778 69.3711 220.581 69.5683L217.585 72.5642C217.235 72.2519 216.88 71.9613 216.521 71.6888L217.86 67.6699C217.905 67.5386 217.924 67.3996 217.915 67.2611C217.906 67.1226 217.869 66.9873 217.808 66.8629C217.746 66.7385 217.661 66.6276 217.556 66.5364C217.451 66.4453 217.33 66.3758 217.198 66.3319C217.066 66.288 216.927 66.2706 216.789 66.2807C216.65 66.2909 216.515 66.3283 216.391 66.3908C216.267 66.4534 216.157 66.5399 216.067 66.6453C215.976 66.7507 215.908 66.8729 215.865 67.0049L214.703 70.4907C214.297 70.2626 213.88 70.0558 213.453 69.8712V64.3628C213.453 64.0839 213.342 63.8164 213.145 63.6192C212.947 63.4219 212.68 63.3111 212.401 63.3111C212.122 63.3111 211.854 63.4219 211.657 63.6192C211.46 63.8164 211.349 64.0839 211.349 64.3628L211.349 69.2018C210.818 69.0927 210.277 69.0407 209.734 69.0465V66.5938C209.734 66.3148 209.624 66.0473 209.426 65.8501C209.229 65.6529 208.962 65.5421 208.683 65.5421C208.404 65.5421 208.136 65.6529 207.939 65.8501C207.742 66.0473 207.631 66.3148 207.631 66.5938V69.4956C207.193 69.6959 206.794 69.9723 206.452 70.312C206.255 70.5092 206.144 70.7767 206.144 71.0556C206.144 71.3345 206.255 71.602 206.452 71.7992C206.649 71.9965 206.917 72.1073 207.195 72.1073C207.474 72.1073 207.742 71.9965 207.939 71.7992Z" fill="#0D1F2D"/>
<path d="M217.081 12.1407C216.789 12.3089 209.91 16.2858 207.939 18.2572C205.968 20.2286 201.991 27.1073 201.822 27.399C201.707 27.5995 201.661 27.8325 201.691 28.062C201.721 28.2914 201.826 28.5045 201.99 28.6681L210.108 36.7867C210.707 37.3843 211.44 37.8289 212.246 38.0831C213.052 38.3372 213.908 38.3934 214.741 38.2468L224.686 36.4917L232.479 44.2846L230.992 45.7718C230.807 45.9562 230.698 46.2025 230.685 46.4628C230.672 46.7232 230.756 46.9792 230.921 47.181L244.307 63.5411C244.329 63.5682 244.352 63.5941 244.377 63.6192C245.364 64.6039 246.701 65.1569 248.096 65.1569C249.49 65.1569 250.827 64.6039 251.814 63.6192L253.301 62.1319C254.286 61.145 254.839 59.8078 254.839 58.4137C254.839 57.0196 254.286 55.6824 253.301 54.6955C253.276 54.6708 253.25 54.6475 253.223 54.6249L236.863 41.2394C236.661 41.0744 236.405 40.9902 236.145 41.0033C235.884 41.0163 235.638 41.1257 235.454 41.31L233.966 42.7973L226.174 35.0044L227.929 25.0587C228.075 24.2261 228.019 23.3705 227.765 22.5642C227.511 21.7579 227.066 21.0247 226.469 20.4267L218.35 12.3081C218.186 12.1444 217.973 12.0393 217.744 12.009C217.514 11.9788 217.281 12.025 217.081 12.1407ZM251.848 56.2173C252.424 56.8125 252.743 57.6099 252.737 58.438C252.73 59.2661 252.399 60.0585 251.814 60.6446L250.326 62.1319C249.74 62.7169 248.948 63.0483 248.12 63.0547C247.292 63.0612 246.494 62.7422 245.899 62.1664L233.152 46.5861L236.268 43.4703L251.848 56.2173ZM209.426 19.7445C210.748 18.4225 215.155 15.7129 217.436 14.3687L218.876 15.8084C216.758 17.0687 212.414 19.7311 210.914 21.2317C209.413 22.7324 206.75 27.0762 205.49 29.1939L204.051 27.7542C205.395 25.4732 208.104 21.0671 209.426 19.7445ZM219.716 30.0346L214.126 27.2392C214.504 26.6945 214.922 26.1779 215.375 25.6936C215.86 25.2402 216.376 24.8226 216.921 24.444L219.716 30.0346ZM213.888 24.2063C212.387 25.707 209.725 30.0508 208.465 32.1685L207.025 30.7289C208.369 28.4478 211.078 24.042 212.401 22.719C213.724 21.3961 218.13 18.6876 220.411 17.3434L221.85 18.7829C219.733 20.0432 215.389 22.7056 213.888 24.2063ZM214.375 36.1755C213.875 36.2634 213.362 36.2297 212.878 36.0772C212.394 35.9247 211.955 35.6579 211.596 35.2995L210 33.7034C210.723 32.4767 211.839 30.6366 212.924 28.9902L221.445 33.2508L222.871 34.6762L214.375 36.1755ZM225.857 24.6931L224.358 33.1889L222.933 31.7635L218.672 23.2427C220.319 22.158 222.159 21.0406 223.385 20.3181L224.981 21.9141C225.34 22.273 225.607 22.7128 225.759 23.1966C225.911 23.6803 225.945 24.1936 225.857 24.6931Z" fill="#0D1F2D"/>
<path d="M310.806 36.8482C309.67 37.9816 308.762 39.3222 308.131 40.7974L299.367 37.8759L303.369 33.8736C303.566 33.6764 303.834 33.5656 304.113 33.5656C304.392 33.5656 304.659 33.6764 304.857 33.8736C305.054 34.0708 305.165 34.3383 305.165 34.6173C305.165 34.8962 305.054 35.1637 304.857 35.3609C304.659 35.5581 304.548 35.8256 304.548 36.1045C304.548 36.3835 304.659 36.6509 304.857 36.8482C305.054 37.0454 305.321 37.1562 305.6 37.1562C305.879 37.1562 306.147 37.0454 306.344 36.8482C306.935 36.2565 307.268 35.454 307.268 34.6173C307.268 33.7805 306.935 32.978 306.344 32.3863C305.752 31.7947 304.95 31.4623 304.113 31.4623C303.276 31.4623 302.474 31.7947 301.882 32.3863L296.676 37.5918C296.55 37.7186 296.457 37.8756 296.409 38.0481C296.36 38.2205 296.355 38.4026 296.397 38.5771C296.438 38.7516 296.523 38.9126 296.644 39.0449C296.765 39.1772 296.918 39.2765 297.088 39.3331L299.935 40.2823L287.959 52.2589L282.29 50.4912L283.291 49.49C283.488 49.2928 283.599 49.0253 283.599 48.7464C283.599 48.4675 283.488 48.2 283.291 48.0028C283.094 47.8055 282.826 47.6947 282.547 47.6947C282.268 47.6947 282.001 47.8055 281.804 48.0028L277.342 52.4646C277.145 52.6618 277.034 52.9293 277.034 53.2082C277.034 53.4872 277.145 53.7546 277.342 53.9519C277.539 54.1491 277.807 54.2599 278.086 54.2599C278.364 54.2599 278.632 54.1491 278.829 53.9519L280.61 52.1706L287.687 54.3773L289.106 60.5271C286.529 61.3537 284.285 62.9871 282.707 65.1861C281.129 67.3852 280.3 70.0333 280.342 72.7396C280.385 75.4459 281.296 78.067 282.942 80.2158C284.587 82.3646 286.88 83.9273 289.482 84.6733C292.084 85.4192 294.857 85.3087 297.391 84.3583C299.925 83.4078 302.087 81.6676 303.556 79.3947C305.026 77.1218 305.726 74.4366 305.553 71.7355C305.379 69.0345 304.342 66.4606 302.594 64.3941L304.207 62.7814C304.787 63.1222 305.44 63.3189 306.111 63.355L306.8 66.7999C306.829 66.9461 306.889 67.0845 306.976 67.2057C307.063 67.327 307.174 67.4284 307.303 67.5033C307.432 67.5781 307.576 67.6247 307.724 67.6399C307.872 67.6551 308.022 67.6386 308.164 67.5914L310.395 66.8478C310.657 66.758 310.874 66.5681 310.997 66.3194C311.12 66.0707 311.14 65.7835 311.052 65.5202C310.964 65.2569 310.776 65.039 310.528 64.9139C310.281 64.7889 309.993 64.7667 309.729 64.8524L308.628 65.2198L308.173 62.9447C309.023 62.5352 309.71 61.8518 310.124 61.0045C310.539 60.1572 310.656 59.1952 310.457 58.2732C310.259 57.3512 309.756 56.5227 309.03 55.921C308.303 55.3193 307.396 54.9793 306.453 54.9557L303.328 41.4139L307.469 42.7944C306.751 45.7563 307.13 48.8779 308.536 51.5822C309.941 54.2864 312.278 56.3904 315.114 57.5053C317.951 58.6202 321.095 58.6706 323.966 57.6472C326.836 56.6238 329.239 54.5958 330.731 51.938C332.222 49.2802 332.701 46.1723 332.079 43.1889C331.456 40.2055 329.775 37.5482 327.345 35.7083C324.916 33.8683 321.902 32.9701 318.862 33.1796C315.822 33.3892 312.96 34.6923 310.806 36.8482ZM290.013 55.1028L302.149 58.8872C302.094 59.7286 302.293 60.567 302.72 61.2941L301.107 62.9068C299.744 61.7553 298.152 60.9059 296.437 60.4147C294.722 59.9236 292.922 59.8018 291.156 60.0574L290.013 55.1028ZM305.188 58.8259L304.314 59.6997C304.219 59.3435 304.219 58.9685 304.314 58.6123C304.409 58.2561 304.596 57.9312 304.857 57.6701C304.874 57.6529 304.892 57.6381 304.91 57.6216L305.188 58.8259ZM299.614 64.4L293.556 70.4575L291.632 62.1172C293.047 61.9359 294.485 62.0447 295.858 62.4372C297.23 62.8297 298.508 63.4975 299.614 64.4ZM300.395 79.9793C299.275 81.1006 297.916 81.9543 296.42 82.4767C294.924 82.999 293.329 83.1765 291.754 82.9958C290.18 82.8151 288.667 82.281 287.328 81.4333C285.989 80.5856 284.859 79.4462 284.022 78.1004C283.185 76.7546 282.664 75.237 282.496 73.6612C282.328 72.0854 282.519 70.492 283.053 69.0002C283.588 67.5083 284.453 66.1566 285.583 65.0459C286.713 63.9353 288.08 63.0945 289.581 62.5864L291.934 72.7793C291.976 72.9623 292.066 73.1305 292.195 73.2667C292.325 73.4029 292.488 73.502 292.668 73.5538C292.849 73.6055 293.04 73.608 293.222 73.561C293.403 73.514 293.569 73.4192 293.702 73.2865L301.101 65.8873C302.748 67.9073 303.587 70.4661 303.457 73.0691C303.326 75.672 302.235 78.1341 300.395 79.9793ZM307.831 57.6701C308.225 58.0648 308.446 58.5997 308.446 59.1574C308.446 59.715 308.225 60.2499 307.831 60.6446C307.799 60.6766 307.765 60.705 307.732 60.7344L307.375 58.9512C307.374 58.9454 307.372 58.94 307.371 58.9344C307.369 58.9289 307.37 58.9253 307.369 58.9209L306.959 57.1472C307.288 57.2471 307.588 57.4267 307.831 57.6701ZM304.403 55.4251C303.751 55.764 303.199 56.2685 302.802 56.8879L290.226 52.966L301.284 41.9081L304.403 55.4251ZM327.166 53.2082C325.555 54.8203 323.464 55.8653 321.208 56.1858C318.952 56.5064 316.653 56.0851 314.657 54.9855C312.661 53.886 311.076 52.1676 310.142 50.0893C309.207 48.0109 308.973 45.6852 309.475 43.4624L319.397 46.7695C319.528 46.8144 319.667 46.8329 319.806 46.8239C319.944 46.8148 320.079 46.7785 320.204 46.7169C320.328 46.6553 320.439 46.5697 320.53 46.465C320.621 46.3603 320.691 46.2386 320.735 46.1069C320.779 45.9753 320.796 45.8362 320.786 45.6978C320.776 45.5594 320.738 45.4243 320.676 45.3004C320.613 45.1765 320.527 45.0662 320.421 44.9759C320.316 44.8856 320.194 44.817 320.062 44.7742L310.137 41.4657C310.768 40.059 311.701 38.8083 312.87 37.8024C314.039 36.7964 315.414 36.0598 316.899 35.6447C318.384 35.2295 319.942 35.1461 321.463 35.4002C322.984 35.6543 324.431 36.2397 325.7 37.1151C326.969 37.9904 328.031 39.1342 328.809 40.4654C329.587 41.7966 330.063 43.2827 330.203 44.8183C330.343 46.3539 330.143 47.9015 329.618 49.3514C329.093 50.8012 328.256 52.118 327.166 53.2082Z" fill="#0D1F2D"/>
<path d="M386.157 16.0263L348.975 53.2082C347.991 54.1952 347.438 55.5324 347.438 56.9264C347.438 58.3205 347.991 59.6577 348.975 60.6446L374.259 85.9284C375.246 86.913 376.583 87.4659 377.977 87.4659C379.371 87.4659 380.709 86.913 381.696 85.9284L394.773 72.8507V78.7998L391.363 82.2102C391.166 82.4074 391.055 82.6749 391.055 82.9538C391.055 83.2327 391.166 83.5002 391.363 83.6975L394.337 86.672C394.535 86.8692 394.802 86.98 395.081 86.98C395.36 86.98 395.627 86.8692 395.825 86.672L419.621 62.8756C419.818 62.6783 419.929 62.4108 419.929 62.1319C419.929 61.853 419.818 61.5855 419.621 61.3883L416.647 58.4137C416.449 58.2165 416.182 58.1057 415.903 58.1057C415.624 58.1057 415.357 58.2165 415.159 58.4137L411.749 61.8241H405.8L418.878 48.7464C419.862 47.7595 420.415 46.4223 420.415 45.0282C420.415 43.6341 419.862 42.297 418.878 41.31L393.594 16.0263C392.607 15.0417 391.27 14.4888 389.876 14.4888C388.481 14.4888 387.144 15.0417 386.157 16.0263ZM415.903 60.6446L417.39 62.1319L395.081 84.4411L393.594 82.9538L415.903 60.6446ZM409.646 63.9271L396.876 76.6968V70.7477L403.697 63.9271H409.646ZM417.39 42.7973C417.982 43.389 418.314 44.1915 418.314 45.0282C418.314 45.865 417.982 46.6675 417.39 47.2591L380.208 84.4411C379.617 85.0328 378.814 85.3652 377.977 85.3652C377.141 85.3652 376.338 85.0328 375.746 84.4411L350.463 59.1574C349.871 58.5657 349.539 57.7632 349.539 56.9264C349.539 56.0897 349.871 55.2872 350.463 54.6955L387.645 17.5136C388.236 16.9219 389.039 16.5895 389.876 16.5895C390.712 16.5895 391.515 16.9219 392.107 17.5136L417.39 42.7973Z" fill="#0D1F2D"/>
<path d="M412.928 41.31L390.619 19.0008C390.422 18.8036 390.154 18.6928 389.876 18.6928C389.597 18.6928 389.329 18.8036 389.132 19.0008L351.95 56.1828C351.753 56.38 351.642 56.6475 351.642 56.9264C351.642 57.2054 351.753 57.4729 351.95 57.6701L374.259 79.9793C374.456 80.1765 374.724 80.2873 375.003 80.2873C375.282 80.2873 375.549 80.1765 375.746 79.9793L412.928 42.7973C413.126 42.6001 413.236 42.3326 413.236 42.0537C413.236 41.7747 413.126 41.5072 412.928 41.31ZM410.697 42.0537L375.003 77.7483L354.181 56.9264L389.876 21.2317L410.697 42.0537Z" fill="#0D1F2D"/>
<path d="M370.976 46.5158V61.3884H373.08V46.5158H370.976Z" fill="#0D1F2D"/>
<path d="M381.388 34.6176V64.3629H383.491V34.6176H381.388Z" fill="#0D1F2D"/>
<path d="M391.798 37.5919V52.4645H393.901V37.5919H391.798Z" fill="#0D1F2D"/>
<path d="M398.799 61.3883C398.358 60.947 397.796 60.6466 397.184 60.5248C396.572 60.4031 395.937 60.4656 395.361 60.7044C394.784 60.9432 394.292 61.3475 393.945 61.8664C393.598 62.3852 393.413 62.9952 393.413 63.6192C393.413 64.2432 393.598 64.8532 393.945 65.372C394.292 65.8908 394.784 66.2952 395.361 66.534C395.937 66.7728 396.572 66.8353 397.184 66.7136C397.796 66.5918 398.358 66.2913 398.799 65.8501C399.391 65.2584 399.723 64.4559 399.723 63.6192C399.723 62.7824 399.391 61.9799 398.799 61.3883ZM397.312 64.3628C397.165 64.5099 396.978 64.6101 396.774 64.6507C396.57 64.6912 396.358 64.6704 396.166 64.5908C395.974 64.5112 395.809 64.3764 395.694 64.2035C395.578 64.0305 395.517 63.8272 395.517 63.6192C395.517 63.4112 395.578 63.2079 395.694 63.0349C395.809 62.862 395.974 62.7272 396.166 62.6476C396.358 62.568 396.57 62.5472 396.774 62.5877C396.978 62.6283 397.165 62.7285 397.312 62.8756C397.509 63.0728 397.62 63.3403 397.62 63.6192C397.62 63.8981 397.509 64.1656 397.312 64.3628Z" fill="#0D1F2D"/>
<path d="M404.005 54.6955L399.543 59.1574L401.03 60.6446L405.492 56.1828L404.005 54.6955Z" fill="#0D1F2D"/>
<path d="M392.106 66.5938L387.645 71.0556L389.132 72.5429L393.594 68.081L392.106 66.5938Z" fill="#0D1F2D"/>
<path d="M155.64 104.688C151.227 109.1 148.223 114.722 147.005 120.842C145.788 126.962 146.413 133.306 148.801 139.071C151.188 144.836 155.232 149.763 160.421 153.23C165.609 156.697 171.709 158.547 177.949 158.547C182.103 158.564 186.219 157.76 190.061 156.182C193.904 154.604 197.397 152.283 200.34 149.352C203.283 146.42 205.619 142.937 207.212 139.101C208.806 135.265 209.626 131.152 209.626 126.998C209.626 122.844 208.806 118.731 207.213 114.895C205.619 111.059 203.284 107.575 200.341 104.643C197.398 101.712 193.905 99.3908 190.062 97.8127C186.22 96.2347 182.103 95.4309 177.949 95.4476C173.805 95.4362 169.698 96.247 165.869 97.8331C162.04 99.4192 158.563 101.749 155.64 104.688ZM198.013 105.446L195.036 108.423C185.404 99.5532 170.494 99.5532 160.862 108.423L157.885 105.446C163.334 100.372 170.503 97.5505 177.949 97.5505C185.395 97.5505 192.564 100.372 198.013 105.446ZM176.462 126.997L160.863 142.596C152.811 133.786 152.811 120.208 160.863 111.398L176.462 126.997ZM177.949 128.484L193.548 144.083C184.738 152.135 171.16 152.135 162.35 144.083L177.949 128.484ZM179.436 126.997L195.035 111.398C203.087 120.208 203.087 133.786 195.035 142.596L179.436 126.997ZM177.949 125.51L162.35 109.911C171.16 101.859 184.738 101.86 193.548 109.911L177.949 125.51ZM148.502 126.997C148.482 119.547 151.306 112.371 156.398 106.933L159.375 109.91C150.505 119.542 150.505 134.452 159.375 144.084L156.398 147.061C151.306 141.623 148.482 134.447 148.502 126.997ZM157.885 148.548L160.862 145.571C170.494 154.441 185.404 154.441 195.036 145.571L198.013 148.548C192.564 153.622 185.395 156.444 177.949 156.444C170.503 156.444 163.334 153.622 157.885 148.548ZM207.396 126.997C207.416 134.447 204.592 141.623 199.5 147.061L196.523 144.084C205.393 134.452 205.393 119.542 196.523 109.91L199.5 106.933C204.592 112.371 207.416 119.547 207.396 126.997Z" fill="#0D1F2D"/>
<path d="M177.949 115.099C178.684 115.834 179.621 116.335 180.641 116.538C181.661 116.741 182.719 116.637 183.679 116.239C184.64 115.841 185.461 115.167 186.039 114.302C186.617 113.437 186.925 112.421 186.925 111.381C186.925 110.341 186.617 109.324 186.039 108.459C185.461 107.595 184.64 106.921 183.679 106.523C182.719 106.125 181.661 106.021 180.641 106.223C179.621 106.426 178.684 106.927 177.949 107.663C176.964 108.649 176.411 109.987 176.411 111.381C176.411 112.775 176.964 114.112 177.949 115.099ZM183.898 109.15C184.339 109.591 184.64 110.153 184.761 110.765C184.883 111.377 184.821 112.012 184.582 112.588C184.343 113.165 183.939 113.657 183.42 114.004C182.901 114.351 182.291 114.536 181.667 114.536C181.043 114.536 180.433 114.351 179.914 114.004C179.395 113.657 178.991 113.165 178.752 112.588C178.513 112.012 178.451 111.377 178.573 110.765C178.694 110.153 178.995 109.591 179.436 109.15C180.028 108.559 180.831 108.227 181.667 108.227C182.504 108.227 183.306 108.559 183.898 109.15Z" fill="#0D1F2D"/>
<path d="M172.743 108.406C172.302 107.965 171.74 107.664 171.128 107.543C170.516 107.421 169.882 107.483 169.305 107.722C168.729 107.961 168.236 108.365 167.889 108.884C167.543 109.403 167.358 110.013 167.358 110.637C167.358 111.261 167.543 111.871 167.889 112.39C168.236 112.909 168.729 113.313 169.305 113.552C169.882 113.791 170.516 113.853 171.128 113.731C171.74 113.61 172.302 113.309 172.743 112.868C173.334 112.276 173.666 111.474 173.666 110.637C173.666 109.801 173.334 108.998 172.743 108.406ZM171.256 111.381C171.109 111.528 170.922 111.628 170.718 111.669C170.514 111.709 170.302 111.688 170.11 111.609C169.918 111.529 169.754 111.394 169.638 111.221C169.523 111.048 169.461 110.845 169.461 110.637C169.461 110.429 169.523 110.226 169.638 110.053C169.754 109.88 169.918 109.745 170.11 109.665C170.302 109.586 170.514 109.565 170.718 109.606C170.922 109.646 171.109 109.746 171.256 109.893C171.453 110.091 171.564 110.358 171.564 110.637C171.564 110.916 171.453 111.183 171.256 111.381Z" fill="#0D1F2D"/>
<path d="M160.102 135.921C160.543 136.362 161.105 136.663 161.717 136.784C162.329 136.906 162.963 136.844 163.54 136.605C164.116 136.366 164.609 135.962 164.956 135.443C165.302 134.924 165.487 134.314 165.487 133.69C165.487 133.066 165.302 132.456 164.956 131.937C164.609 131.418 164.116 131.014 163.54 130.775C162.963 130.536 162.329 130.474 161.717 130.596C161.105 130.717 160.543 131.018 160.102 131.459C159.511 132.051 159.179 132.853 159.179 133.69C159.179 134.526 159.511 135.329 160.102 135.921ZM161.589 132.946C161.736 132.799 161.923 132.699 162.127 132.658C162.331 132.618 162.543 132.639 162.735 132.718C162.927 132.798 163.091 132.933 163.207 133.106C163.322 133.279 163.384 133.482 163.384 133.69C163.384 133.898 163.322 134.101 163.207 134.274C163.091 134.447 162.927 134.582 162.735 134.661C162.543 134.741 162.331 134.762 162.127 134.721C161.923 134.681 161.736 134.581 161.589 134.434C161.392 134.236 161.281 133.969 161.281 133.69C161.281 133.411 161.392 133.144 161.589 132.946Z" fill="#0D1F2D"/>
<path d="M166.051 126.997C166.786 126.262 167.287 125.325 167.49 124.305C167.693 123.285 167.588 122.227 167.19 121.267C166.792 120.306 166.119 119.485 165.254 118.907C164.389 118.329 163.372 118.021 162.332 118.021C161.292 118.021 160.276 118.329 159.411 118.907C158.546 119.485 157.872 120.306 157.474 121.267C157.076 122.227 156.972 123.285 157.175 124.305C157.378 125.325 157.879 126.262 158.614 126.997C159.601 127.982 160.938 128.535 162.332 128.535C163.727 128.535 165.064 127.982 166.051 126.997ZM160.101 121.048C160.543 120.607 161.105 120.306 161.717 120.185C162.329 120.063 162.963 120.125 163.54 120.364C164.116 120.603 164.609 121.007 164.956 121.526C165.302 122.045 165.487 122.655 165.487 123.279C165.487 123.903 165.302 124.513 164.956 125.032C164.609 125.551 164.116 125.955 163.54 126.194C162.963 126.433 162.329 126.495 161.717 126.373C161.105 126.252 160.543 125.951 160.101 125.51C159.511 124.918 159.179 124.115 159.179 123.279C159.179 122.442 159.511 121.64 160.101 121.048Z" fill="#0D1F2D"/>
<path d="M172.743 141.126C172.302 140.685 171.74 140.385 171.128 140.263C170.516 140.141 169.882 140.204 169.305 140.442C168.729 140.681 168.236 141.086 167.889 141.604C167.543 142.123 167.358 142.733 167.358 143.357C167.358 143.981 167.543 144.591 167.889 145.11C168.236 145.629 168.729 146.033 169.305 146.272C169.882 146.511 170.516 146.573 171.128 146.452C171.74 146.33 172.302 146.029 172.743 145.588C173.334 144.996 173.666 144.194 173.666 143.357C173.666 142.521 173.334 141.718 172.743 141.126ZM171.256 144.101C171.109 144.248 170.922 144.348 170.718 144.389C170.514 144.429 170.302 144.408 170.11 144.329C169.918 144.249 169.754 144.114 169.638 143.941C169.523 143.769 169.461 143.565 169.461 143.357C169.461 143.149 169.523 142.946 169.638 142.773C169.754 142.6 169.918 142.465 170.11 142.386C170.302 142.306 170.514 142.285 170.718 142.326C170.922 142.366 171.109 142.466 171.256 142.614C171.453 142.811 171.564 143.078 171.564 143.357C171.564 143.636 171.453 143.903 171.256 144.101Z" fill="#0D1F2D"/>
<path d="M197.283 119.561C196.548 118.825 195.611 118.325 194.591 118.122C193.571 117.919 192.514 118.023 191.553 118.421C190.592 118.819 189.771 119.493 189.193 120.358C188.615 121.222 188.307 122.239 188.307 123.279C188.307 124.319 188.615 125.336 189.193 126.2C189.771 127.065 190.592 127.739 191.553 128.137C192.514 128.535 193.571 128.639 194.591 128.436C195.611 128.233 196.548 127.733 197.284 126.997C198.268 126.01 198.821 124.673 198.821 123.279C198.821 121.885 198.268 120.548 197.283 119.561ZM195.796 125.51C195.355 125.951 194.793 126.252 194.181 126.373C193.569 126.495 192.934 126.433 192.358 126.194C191.781 125.955 191.289 125.551 190.942 125.032C190.595 124.513 190.41 123.903 190.41 123.279C190.41 122.655 190.595 122.045 190.942 121.526C191.289 121.007 191.781 120.603 192.358 120.364C192.934 120.125 193.569 120.063 194.181 120.185C194.793 120.306 195.355 120.607 195.796 121.048C196.387 121.64 196.719 122.442 196.719 123.279C196.719 124.115 196.387 124.918 195.796 125.51Z" fill="#0D1F2D"/>
<path d="M184.642 145.588C185.377 144.853 185.878 143.916 186.081 142.896C186.284 141.876 186.179 140.818 185.781 139.858C185.384 138.897 184.71 138.076 183.845 137.498C182.98 136.92 181.963 136.612 180.923 136.612C179.883 136.612 178.867 136.92 178.002 137.498C177.137 138.076 176.463 138.897 176.065 139.858C175.667 140.818 175.563 141.876 175.766 142.896C175.969 143.916 176.47 144.853 177.205 145.588C178.192 146.573 179.529 147.126 180.923 147.126C182.318 147.126 183.655 146.573 184.642 145.588ZM178.693 139.639C179.134 139.198 179.696 138.897 180.308 138.776C180.92 138.654 181.554 138.716 182.131 138.955C182.707 139.194 183.2 139.598 183.547 140.117C183.893 140.636 184.078 141.246 184.078 141.87C184.078 142.494 183.893 143.104 183.547 143.623C183.2 144.142 182.707 144.546 182.131 144.785C181.554 145.024 180.92 145.086 180.308 144.964C179.696 144.843 179.134 144.542 178.693 144.101C178.102 143.509 177.77 142.706 177.77 141.87C177.77 141.033 178.102 140.231 178.693 139.639Z" fill="#0D1F2D"/>
<path d="M186.873 129.972C187.283 129.561 187.283 128.895 186.873 128.484C186.462 128.074 185.796 128.074 185.385 128.484C184.975 128.895 184.975 129.561 185.385 129.972C185.796 130.382 186.462 130.382 186.873 129.972Z" fill="#0D1F2D"/>
<path d="M175.718 136.664C176.129 136.254 176.129 135.588 175.718 135.177C175.307 134.766 174.641 134.766 174.231 135.177C173.82 135.588 173.82 136.254 174.231 136.664C174.641 137.075 175.307 137.075 175.718 136.664Z" fill="#0D1F2D"/>
<path d="M189.847 144.844C190.258 144.434 190.258 143.768 189.847 143.357C189.436 142.946 188.771 142.946 188.36 143.357C187.949 143.768 187.949 144.434 188.36 144.844C188.771 145.255 189.436 145.255 189.847 144.844Z" fill="#0D1F2D"/>
<path d="M172.743 127.741C173.154 127.33 173.154 126.664 172.743 126.253C172.333 125.843 171.667 125.843 171.256 126.253C170.845 126.664 170.845 127.33 171.256 127.741C171.667 128.151 172.333 128.151 172.743 127.741Z" fill="#0D1F2D"/>
<path d="M177.949 121.048C178.36 120.637 178.36 119.971 177.949 119.561C177.538 119.15 176.872 119.15 176.462 119.561C176.051 119.971 176.051 120.637 176.462 121.048C176.872 121.459 177.538 121.459 177.949 121.048Z" fill="#0D1F2D"/>
<path d="M192.078 132.203C191.637 132.644 191.336 133.206 191.215 133.818C191.093 134.43 191.155 135.064 191.394 135.641C191.633 136.217 192.037 136.71 192.556 137.057C193.075 137.403 193.685 137.589 194.309 137.589C194.933 137.589 195.543 137.403 196.062 137.057C196.581 136.71 196.985 136.217 197.224 135.641C197.463 135.064 197.525 134.43 197.403 133.818C197.282 133.206 196.981 132.644 196.54 132.203C195.948 131.612 195.145 131.28 194.309 131.28C193.473 131.28 192.67 131.612 192.078 132.203ZM195.053 135.177C194.906 135.324 194.718 135.424 194.514 135.465C194.31 135.506 194.099 135.485 193.907 135.405C193.714 135.326 193.55 135.191 193.435 135.018C193.319 134.845 193.257 134.642 193.257 134.434C193.257 134.226 193.319 134.022 193.435 133.849C193.55 133.676 193.714 133.542 193.907 133.462C194.099 133.382 194.31 133.361 194.514 133.402C194.718 133.443 194.906 133.543 195.053 133.69C195.25 133.887 195.36 134.155 195.36 134.434C195.36 134.712 195.25 134.98 195.053 135.177Z" fill="#0D1F2D"/>
<path d="M230.642 109.821C229.907 109.085 228.97 108.585 227.95 108.382C226.93 108.179 225.872 108.283 224.911 108.681C223.951 109.079 223.129 109.753 222.552 110.618C221.974 111.482 221.665 112.499 221.665 113.539C221.665 114.579 221.974 115.596 222.552 116.46C223.129 117.325 223.951 117.999 224.911 118.397C225.872 118.795 226.93 118.899 227.95 118.696C228.97 118.493 229.907 117.993 230.642 117.257C231.627 116.27 232.18 114.933 232.18 113.539C232.18 112.145 231.627 110.808 230.642 109.821ZM229.155 115.77C228.713 116.211 228.151 116.512 227.539 116.633C226.927 116.755 226.293 116.693 225.716 116.454C225.14 116.215 224.647 115.811 224.3 115.292C223.954 114.773 223.769 114.163 223.769 113.539C223.769 112.915 223.954 112.305 224.3 111.786C224.647 111.267 225.14 110.863 225.716 110.624C226.293 110.385 226.927 110.323 227.539 110.445C228.151 110.566 228.713 110.867 229.155 111.308C229.745 111.9 230.077 112.703 230.077 113.539C230.077 114.375 229.745 115.178 229.155 115.77Z" fill="#0D1F2D"/>
<path d="M338.155 61.8208C337.419 61.0854 336.482 60.5846 335.462 60.3817C334.442 60.1788 333.385 60.2829 332.424 60.6809C331.463 61.0789 330.642 61.7529 330.064 62.6176C329.486 63.4824 329.178 64.499 329.178 65.539C329.178 66.579 329.486 67.5956 330.064 68.4604C330.642 69.3251 331.463 69.9991 332.424 70.3971C333.385 70.795 334.442 70.8992 335.462 70.6963C336.482 70.4934 337.419 69.9926 338.155 69.2572C339.139 68.2703 339.692 66.9331 339.692 65.539C339.692 64.1449 339.139 62.8077 338.155 61.8208ZM336.667 67.7699C336.226 68.2111 335.664 68.5116 335.052 68.6334C334.44 68.7551 333.806 68.6926 333.229 68.4538C332.653 68.215 332.16 67.8107 331.813 67.2918C331.466 66.773 331.281 66.163 331.281 65.539C331.281 64.915 331.466 64.305 331.813 63.7862C332.16 63.2673 332.653 62.863 333.229 62.6242C333.806 62.3854 334.44 62.3229 335.052 62.4446C335.664 62.5664 336.226 62.8668 336.667 63.3081C337.258 63.9002 337.59 64.7025 337.59 65.539C337.59 66.3755 337.258 67.1778 336.667 67.7699Z" fill="#0D1F2D"/>
<path d="M175.155 14.8208C174.419 14.0854 173.482 13.5846 172.462 13.3817C171.442 13.1788 170.385 13.2829 169.424 13.6809C168.463 14.0789 167.642 14.7529 167.064 15.6176C166.486 16.4824 166.178 17.499 166.178 18.539C166.178 19.579 166.486 20.5956 167.064 21.4604C167.642 22.3251 168.463 22.9991 169.424 23.3971C170.385 23.795 171.442 23.8992 172.462 23.6963C173.482 23.4934 174.419 22.9926 175.155 22.2572C176.139 21.2703 176.692 19.9331 176.692 18.539C176.692 17.1449 176.139 15.8077 175.155 14.8208ZM173.667 20.7699C173.226 21.2111 172.664 21.5116 172.052 21.6334C171.44 21.7551 170.806 21.6926 170.229 21.4538C169.653 21.215 169.16 20.8107 168.813 20.2918C168.466 19.773 168.281 19.163 168.281 18.539C168.281 17.915 168.466 17.305 168.813 16.7862C169.16 16.2673 169.653 15.863 170.229 15.6242C170.806 15.3854 171.44 15.3229 172.052 15.4446C172.664 15.5664 173.226 15.8668 173.667 16.3081C174.258 16.9002 174.59 17.7025 174.59 18.539C174.59 19.3755 174.258 20.1778 173.667 20.7699Z" fill="#0D1F2D"/>
<path d="M450.155 21.8208C449.419 21.0854 448.482 20.5846 447.462 20.3817C446.442 20.1788 445.385 20.2829 444.424 20.6809C443.463 21.0789 442.642 21.7529 442.064 22.6176C441.486 23.4824 441.178 24.499 441.178 25.539C441.178 26.579 441.486 27.5956 442.064 28.4604C442.642 29.3251 443.463 29.9991 444.424 30.3971C445.385 30.795 446.442 30.8992 447.462 30.6963C448.482 30.4934 449.419 29.9926 450.155 29.2572C451.139 28.2703 451.692 26.9331 451.692 25.539C451.692 24.1449 451.139 22.8077 450.155 21.8208ZM448.667 27.7699C448.226 28.2111 447.664 28.5116 447.052 28.6334C446.44 28.7551 445.806 28.6926 445.229 28.4538C444.653 28.215 444.16 27.8107 443.813 27.2918C443.466 26.773 443.281 26.163 443.281 25.539C443.281 24.915 443.466 24.305 443.813 23.7862C444.16 23.2673 444.653 22.863 445.229 22.6242C445.806 22.3854 446.44 22.3229 447.052 22.4446C447.664 22.5664 448.226 22.8668 448.667 23.3081C449.258 23.9002 449.59 24.7025 449.59 25.539C449.59 26.3755 449.258 27.1778 448.667 27.7699Z" fill="#0D1F2D"/>
<path d="M424.155 148.821C423.419 148.085 422.482 147.585 421.462 147.382C420.442 147.179 419.385 147.283 418.424 147.681C417.463 148.079 416.642 148.753 416.064 149.618C415.486 150.482 415.178 151.499 415.178 152.539C415.178 153.579 415.486 154.596 416.064 155.46C416.642 156.325 417.463 156.999 418.424 157.397C419.385 157.795 420.442 157.899 421.462 157.696C422.482 157.493 423.419 156.993 424.155 156.257C425.139 155.27 425.692 153.933 425.692 152.539C425.692 151.145 425.139 149.808 424.155 148.821ZM422.667 154.77C422.226 155.211 421.664 155.512 421.052 155.633C420.44 155.755 419.806 155.693 419.229 155.454C418.653 155.215 418.16 154.811 417.813 154.292C417.466 153.773 417.281 153.163 417.281 152.539C417.281 151.915 417.466 151.305 417.813 150.786C418.16 150.267 418.653 149.863 419.229 149.624C419.806 149.385 420.44 149.323 421.052 149.445C421.664 149.566 422.226 149.867 422.667 150.308C423.258 150.9 423.59 151.703 423.59 152.539C423.59 153.375 423.258 154.178 422.667 154.77Z" fill="#0D1F2D"/>
<path d="M140.155 145.821C139.419 145.085 138.482 144.585 137.462 144.382C136.442 144.179 135.385 144.283 134.424 144.681C133.463 145.079 132.642 145.753 132.064 146.618C131.486 147.482 131.178 148.499 131.178 149.539C131.178 150.579 131.486 151.596 132.064 152.46C132.642 153.325 133.463 153.999 134.424 154.397C135.385 154.795 136.442 154.899 137.462 154.696C138.482 154.493 139.419 153.993 140.155 153.257C141.139 152.27 141.692 150.933 141.692 149.539C141.692 148.145 141.139 146.808 140.155 145.821ZM138.667 151.77C138.226 152.211 137.664 152.512 137.052 152.633C136.44 152.755 135.806 152.693 135.229 152.454C134.653 152.215 134.16 151.811 133.813 151.292C133.466 150.773 133.281 150.163 133.281 149.539C133.281 148.915 133.466 148.305 133.813 147.786C134.16 147.267 134.653 146.863 135.229 146.624C135.806 146.385 136.44 146.323 137.052 146.445C137.664 146.566 138.226 146.867 138.667 147.308C139.258 147.9 139.59 148.703 139.59 149.539C139.59 150.375 139.258 151.178 138.667 151.77Z" fill="#0D1F2D"/>
<path d="M220.231 120.232C220.642 119.821 220.642 119.155 220.231 118.744C219.82 118.334 219.154 118.334 218.744 118.744C218.333 119.155 218.333 119.821 218.744 120.232C219.154 120.642 219.82 120.642 220.231 120.232Z" fill="#0D1F2D"/>
<path d="M273.293 165.008C270.839 167.462 267.459 168.989 263.737 169.003C260.107 169.003 256.693 167.582 254.121 164.999C251.563 162.431 250.161 159.037 250.176 155.442L250.149 151.682C250.143 151.046 250.656 150.527 251.291 150.522C251.927 150.516 252.447 151.029 252.451 151.665L252.479 155.438C252.467 158.429 253.63 161.243 255.752 163.374C257.89 165.519 260.723 166.7 263.732 166.7C269.911 166.675 274.963 161.627 274.987 155.442L274.986 151.7C274.987 151.063 275.501 150.549 276.138 150.548C276.774 150.548 277.291 151.064 277.291 151.7L277.29 155.447C277.275 159.171 275.747 162.554 273.293 165.008ZM276.953 143.937C276.744 144.145 276.457 144.274 276.139 144.274C275.502 144.274 274.986 143.758 274.987 143.122V110.873C274.986 110.236 275.502 109.72 276.139 109.721C276.775 109.721 277.29 110.236 277.29 110.872V143.123C277.29 143.441 277.161 143.728 276.953 143.937ZM252.115 143.964C251.906 144.172 251.619 144.301 251.3 144.302C250.664 144.302 250.148 143.785 250.148 143.149V110.846C250.148 110.21 250.664 109.693 251.3 109.693C251.937 109.694 252.452 110.209 252.452 110.845V143.15C252.452 143.468 252.323 143.755 252.115 143.964ZM276.953 103.11C276.744 103.318 276.456 103.447 276.138 103.447C275.502 103.447 274.987 102.931 274.986 102.295L274.987 98.5491C274.962 92.3693 269.912 87.3187 263.729 87.2949C260.732 87.2944 257.904 88.4695 255.769 90.6045C255.764 90.6102 255.758 90.6158 255.752 90.6214C253.63 92.7523 252.467 95.5663 252.479 98.544L252.451 102.33C252.448 102.965 251.927 103.479 251.291 103.473C250.655 103.469 250.143 102.95 250.149 102.313L250.176 98.5402C250.161 94.9584 251.563 91.5641 254.121 88.9955C254.127 88.989 254.134 88.9824 254.141 88.9759C256.71 86.406 260.116 84.9915 263.733 84.9915C271.181 85.0195 277.261 91.0993 277.29 98.5444L277.291 102.295C277.291 102.613 277.161 102.901 276.953 103.11Z" fill="#0D1F2D"/>
<path d="M255.225 111.291C255.215 111.301 255.204 111.312 255.194 111.322C254.717 111.782 254.09 112.021 253.429 111.996L250.741 112.024C250.724 112.024 250.707 112.023 250.69 112.023C249.342 111.975 248.247 110.861 248.249 109.541L248.248 103.626C248.248 102.306 249.344 101.194 250.687 101.144L253.484 101.17C254.09 101.147 254.716 101.385 255.193 101.845C255.676 102.31 255.953 102.968 255.953 103.651V109.515C255.953 110.183 255.689 110.827 255.225 111.291ZM250.756 109.72L253.595 109.663C253.614 109.64 253.65 109.6 253.65 109.516L253.65 103.652C253.65 103.57 253.615 103.524 253.595 103.504C253.577 103.505 253.479 103.474 253.46 103.474L250.719 103.446C250.652 103.449 250.554 103.549 250.551 103.626L250.552 109.542C250.552 109.609 250.636 109.708 250.756 109.72Z" fill="#0D1F2D"/>
<path d="M278.471 111.279C278.024 111.725 277.404 111.997 276.709 111.997L273.977 112.024C273.959 112.025 273.941 112.024 273.924 112.023C272.584 111.973 271.535 110.925 271.486 109.585L271.485 103.625C271.486 102.302 272.581 101.193 273.925 101.144L276.72 101.169C278.1 101.17 279.19 102.26 279.191 103.651V109.515C279.19 110.211 278.918 110.831 278.471 111.279ZM273.993 109.72L276.697 109.694C276.832 109.694 276.888 109.641 276.888 109.514L276.887 103.651C276.887 103.529 276.832 103.473 276.708 103.473L273.955 103.447C273.88 103.45 273.788 103.556 273.789 103.624L273.789 109.543C273.792 109.626 273.873 109.709 273.993 109.72Z" fill="#0D1F2D"/>
<path d="M273.451 105.634C273.242 105.843 272.954 105.972 272.636 105.971L254.775 105.97C254.139 105.97 253.623 105.455 253.623 104.819C253.623 104.183 254.139 103.666 254.775 103.667L272.637 103.668C273.273 103.668 273.788 104.183 273.789 104.82C273.789 105.137 273.66 105.426 273.451 105.634Z" fill="#0D1F2D"/>
<path d="M265.699 111.201C265.688 111.211 265.677 111.222 265.666 111.232C265.135 111.748 264.435 112.019 263.698 111.996C262.174 111.997 260.953 110.776 260.952 109.217C260.93 108.514 261.202 107.815 261.717 107.283C262.251 106.707 262.962 106.436 263.732 106.436C263.745 106.436 263.757 106.436 263.768 106.437C265.262 106.483 266.467 107.688 266.513 109.181C266.514 109.972 266.224 110.675 265.699 111.201ZM263.376 108.881C263.312 108.947 263.25 109.037 263.255 109.182C263.256 109.501 263.449 109.693 263.733 109.694C263.914 109.699 263.999 109.641 264.069 109.573C264.123 109.519 264.21 109.402 264.211 109.215C264.202 108.969 263.995 108.757 263.716 108.739C263.54 108.745 263.43 108.827 263.376 108.881Z" fill="#0D1F2D"/>
<path d="M263.001 110.601C262.655 110.946 262.115 111.046 261.659 110.81C259.969 109.942 257.654 109.5 254.775 109.5C254.139 109.5 253.623 108.984 253.623 108.348C253.623 107.712 254.139 107.195 254.775 107.196C258.024 107.196 260.695 107.723 262.713 108.763C263.279 109.054 263.501 109.748 263.211 110.314C263.153 110.423 263.083 110.519 263.001 110.601Z" fill="#0D1F2D"/>
<path d="M273.451 109.162C273.246 109.368 272.961 109.497 272.647 109.499C269.67 109.526 267.368 109.972 265.805 110.825C265.246 111.13 264.547 110.924 264.242 110.367C263.938 109.808 264.137 109.108 264.701 108.804C266.628 107.751 269.22 107.226 272.627 107.196C273.263 107.191 273.783 107.701 273.789 108.338C273.792 108.659 273.662 108.952 273.451 109.162Z" fill="#0D1F2D"/>
<path d="M255.224 152.118C255.214 152.128 255.203 152.139 255.193 152.15C254.716 152.609 254.09 152.848 253.43 152.824L250.742 152.852C249.343 152.801 248.248 151.687 248.248 150.37L248.249 144.452C248.245 143.134 249.34 142.019 250.689 141.972C250.707 141.971 250.724 141.971 250.741 141.971L253.482 141.998C254.09 141.974 254.716 142.213 255.194 142.673C255.677 143.138 255.953 143.797 255.953 144.48L255.954 150.343C255.953 151.011 255.688 151.654 255.224 152.118ZM250.605 144.347C250.572 144.38 250.552 144.419 250.552 144.451L250.551 150.37C250.551 150.447 250.651 150.545 250.774 150.55L253.595 150.491C253.604 150.475 253.65 150.427 253.65 150.342L253.649 144.479C253.65 144.396 253.616 144.351 253.595 144.331C253.577 144.332 253.479 144.301 253.461 144.301L250.756 144.275C250.694 144.281 250.642 144.311 250.605 144.347Z" fill="#0D1F2D"/>
<path d="M278.471 152.106C278.025 152.552 277.405 152.825 276.709 152.825L273.978 152.852C272.579 152.802 271.485 151.689 271.485 150.37L271.485 144.452C271.537 143.068 272.584 142.021 273.924 141.972C273.941 141.971 273.959 141.97 273.977 141.97L276.719 141.997C278.1 141.998 279.19 143.088 279.19 144.479L279.191 150.343C279.19 151.039 278.917 151.659 278.471 152.106ZM273.852 144.337C273.813 144.376 273.79 144.43 273.788 144.495L273.789 150.37C273.789 150.44 273.881 150.544 274.008 150.549L276.697 150.521C276.833 150.522 276.886 150.465 276.887 150.343L276.887 144.48C276.887 144.354 276.834 144.301 276.707 144.3L273.993 144.274C273.935 144.279 273.887 144.302 273.852 144.337Z" fill="#0D1F2D"/>
<path d="M273.451 149.99C273.242 150.198 272.955 150.327 272.637 150.327L254.775 150.328C254.139 150.328 253.623 149.812 253.623 149.176C253.623 148.54 254.139 148.024 254.774 148.024L272.636 148.024C273.272 148.023 273.789 148.539 273.789 149.175C273.789 149.493 273.659 149.781 273.451 149.99Z" fill="#0D1F2D"/>
<path d="M265.674 146.733C265.181 147.226 264.511 147.535 263.768 147.558C263.757 147.558 263.745 147.559 263.732 147.558C262.962 147.558 262.247 147.258 261.717 146.711C261.202 146.18 260.93 145.48 260.953 144.743C260.953 143.218 262.175 141.997 263.732 141.997C264.435 141.976 265.135 142.247 265.666 142.762C266.212 143.292 266.513 144.007 266.513 144.777C266.49 145.547 266.173 146.234 265.674 146.733ZM263.716 145.255C263.994 145.237 264.202 145.025 264.211 144.743C264.21 144.587 264.118 144.47 264.063 144.416C264.006 144.361 263.909 144.296 263.768 144.3C263.449 144.303 263.255 144.495 263.256 144.778C263.251 144.954 263.316 145.051 263.371 145.108C263.423 145.161 263.535 145.25 263.716 145.255Z" fill="#0D1F2D"/>
<path d="M263 145.023C262.918 145.105 262.822 145.176 262.713 145.232C260.695 146.271 258.024 146.798 254.775 146.798C254.139 146.799 253.623 146.283 253.623 145.647C253.623 145.011 254.139 144.495 254.774 144.495C257.653 144.495 259.969 144.053 261.659 143.184C262.224 142.893 262.919 143.116 263.21 143.681C263.445 144.137 263.345 144.678 263 145.023Z" fill="#0D1F2D"/>
<path d="M273.451 146.462C273.24 146.673 272.949 146.802 272.626 146.798C269.22 146.769 266.628 146.243 264.701 145.191C264.143 144.886 263.937 144.187 264.241 143.628C264.545 143.072 265.245 142.864 265.805 143.17C267.368 144.023 269.67 144.469 272.647 144.496C273.283 144.502 273.794 145.021 273.788 145.657C273.786 145.972 273.658 146.256 273.451 146.462Z" fill="#0D1F2D"/>
<path d="M328.653 146.332C328.685 146.365 328.721 146.395 328.757 146.424L352.578 164.64C353.186 165.102 353.941 165.329 354.704 165.278C355.466 165.228 356.184 164.903 356.726 164.364L388.144 132.946C388.735 132.354 389.066 131.552 389.066 130.715C389.066 129.879 388.735 129.077 388.144 128.484L385.218 125.559L365.926 100.331C365.923 100.328 365.92 100.325 365.918 100.321C365.905 100.304 365.89 100.288 365.876 100.272C365.865 100.26 365.855 100.248 365.844 100.237C365.841 100.233 365.838 100.23 365.835 100.227L362.86 97.252C362.662 97.0548 362.395 96.944 362.116 96.944C361.837 96.944 361.57 97.0548 361.372 97.252L346.5 112.124C346.303 112.322 346.192 112.589 346.192 112.868C346.192 113.147 346.303 113.414 346.5 113.612L349.475 116.586C349.478 116.59 349.481 116.593 349.484 116.595C349.495 116.607 349.507 116.617 349.519 116.627C349.535 116.642 349.551 116.656 349.568 116.669C349.571 116.672 349.574 116.676 349.578 116.678L361.231 125.589C359.623 126.97 358.756 127.028 358.431 126.974C358.314 126.954 358.204 126.908 358.108 126.839C358.012 126.771 357.932 126.681 357.875 126.578C357.815 126.418 357.715 126.275 357.585 126.164C357.454 126.053 357.298 125.978 357.13 125.944C356.956 125.91 356.777 125.921 356.609 125.975C356.44 126.029 356.289 126.125 356.167 126.254C354.688 127.733 353.836 129.162 353.324 130.529L349.566 125.615C349.538 125.578 349.507 125.543 349.475 125.51C347.691 123.729 345.451 122.476 343.001 121.887C340.551 121.299 337.985 121.398 335.588 122.175C335.516 121.976 335.385 121.803 335.213 121.68L330.008 117.961C329.805 117.817 329.558 117.749 329.31 117.769C329.061 117.79 328.829 117.897 328.653 118.073L327.909 118.817L324.934 115.843L330.14 110.637C330.337 110.44 330.448 110.172 330.448 109.893C330.448 109.615 330.337 109.347 330.14 109.15L327.165 106.175C327.064 106.073 326.942 105.994 326.808 105.941C326.674 105.888 326.531 105.863 326.387 105.868C326.243 105.873 326.101 105.907 325.971 105.969C325.841 106.03 325.725 106.118 325.63 106.226L315.219 118.125C315.082 118.282 314.994 118.476 314.968 118.683C314.941 118.89 314.977 119.101 315.07 119.287L316.557 122.262C316.632 122.411 316.741 122.54 316.875 122.639C317.009 122.738 317.165 122.803 317.33 122.83C317.494 122.856 317.663 122.844 317.821 122.792C317.98 122.741 318.124 122.653 318.242 122.535L318.985 121.792L321.96 124.766L321.216 125.51C321.04 125.686 320.932 125.919 320.912 126.167C320.891 126.415 320.959 126.662 321.104 126.865L324.822 132.07C324.946 132.242 325.118 132.373 325.317 132.445C324.541 134.843 324.442 137.408 325.03 139.858C325.619 142.308 326.872 144.548 328.653 146.332ZM362.764 155.351C362.592 155.523 362.359 155.619 362.116 155.619C361.874 155.619 361.641 155.523 361.469 155.351L353.84 147.723C353.669 147.551 353.572 147.318 353.572 147.075C353.572 146.833 353.669 146.6 353.84 146.428L371.88 128.388C372.052 128.217 372.285 128.121 372.527 128.121C372.77 128.121 373.003 128.217 373.175 128.388L380.803 136.017C380.975 136.189 381.071 136.422 381.071 136.664C381.071 136.907 380.975 137.14 380.803 137.312L362.764 155.351ZM352.449 141.87L367.322 126.997L368.809 128.484L353.936 143.357L352.449 141.87ZM386.656 129.972C386.853 130.169 386.964 130.437 386.964 130.715C386.964 130.994 386.853 131.262 386.656 131.459L382.838 135.278C382.695 135.002 382.511 134.749 382.291 134.53L379.964 132.203L384.426 127.741L386.656 129.972ZM383.031 126.161L378.476 130.715L374.662 126.901C374.096 126.336 373.328 126.018 372.527 126.018C371.727 126.018 370.959 126.336 370.392 126.901L370.296 126.997L368.065 124.766C368.045 124.745 368.023 124.726 368.001 124.708C367.998 124.705 367.992 124.7 367.987 124.696L367.984 124.693C367.441 124.262 366.821 123.937 366.157 123.735C365.607 123.558 365.024 123.505 364.452 123.582C363.879 123.658 363.33 123.861 362.846 124.175L351.811 115.737L364.985 102.563L383.031 126.161ZM348.731 112.868L362.116 99.4825L363.604 100.97L350.218 114.355L348.731 112.868ZM358.002 129.033C359.567 129.341 361.452 128.405 363.604 126.254C364.161 125.696 364.766 125.532 365.507 125.736C365.533 125.744 365.559 125.751 365.585 125.76L354.403 136.941C354.477 136.381 354.524 135.823 354.57 135.27C354.756 133.035 354.933 130.91 356.899 128.563C357.229 128.797 357.605 128.957 358.002 129.033ZM317.267 118.978L326.473 108.457L327.909 109.893L317.786 120.016L317.267 118.978ZM320.473 120.304L323.447 117.33L326.422 120.304L323.447 123.279L320.473 120.304ZM325.812 129.837L323.333 126.367L329.51 120.191L332.98 122.67L325.812 129.837ZM330.14 128.484L331.627 126.997C333.79 124.839 336.718 123.623 339.773 123.614C342.828 123.605 345.763 124.804 347.939 126.949L352.677 133.146C352.581 133.815 352.526 134.465 352.474 135.095C352.29 137.305 352.131 139.213 350.218 141.126C350.021 141.324 349.91 141.591 349.91 141.87C349.91 142.149 350.021 142.416 350.218 142.614L352.449 144.844L352.353 144.941C351.788 145.507 351.47 146.275 351.47 147.075C351.47 147.876 351.788 148.644 352.353 149.21L359.981 156.839C360.201 157.059 360.454 157.243 360.73 157.386L355.238 162.877C355.058 163.057 354.818 163.165 354.564 163.182C354.31 163.198 354.059 163.123 353.856 162.969L330.092 144.796C327.946 142.621 326.748 139.686 326.757 136.63C326.766 133.575 327.982 130.647 330.14 128.484Z" fill="#0D1F2D"/>
<path d="M364.347 138.895C363.759 139.484 363.358 140.233 363.196 141.049C363.034 141.865 363.117 142.711 363.435 143.48C363.754 144.248 364.293 144.905 364.985 145.368C365.677 145.83 366.49 146.077 367.322 146.077C368.154 146.077 368.967 145.83 369.659 145.368C370.351 144.905 370.89 144.248 371.208 143.48C371.527 142.711 371.61 141.865 371.448 141.049C371.285 140.233 370.885 139.484 370.296 138.895C369.507 138.108 368.437 137.665 367.322 137.665C366.207 137.665 365.137 138.108 364.347 138.895ZM368.809 143.357C368.515 143.651 368.14 143.852 367.732 143.933C367.324 144.014 366.901 143.972 366.517 143.813C366.133 143.654 365.804 143.384 365.573 143.038C365.342 142.693 365.219 142.286 365.219 141.87C365.219 141.454 365.342 141.047 365.573 140.701C365.804 140.355 366.133 140.086 366.517 139.927C366.901 139.767 367.324 139.726 367.732 139.807C368.14 139.888 368.515 140.088 368.809 140.383C369.203 140.777 369.424 141.312 369.424 141.87C369.424 142.428 369.203 142.962 368.809 143.357Z" fill="#0D1F2D"/>
<path d="M365.835 116.586C367.954 114.467 368.594 111.909 367.322 110.637C366.05 109.365 363.492 110.005 361.373 112.124C359.253 114.244 358.614 116.802 359.885 118.073C361.157 119.345 363.715 118.706 365.835 116.586ZM362.86 113.612C364.3 112.172 365.65 111.939 365.835 112.124C366.02 112.309 365.787 113.659 364.347 115.099C362.908 116.539 361.558 116.771 361.373 116.586C361.188 116.401 361.42 115.051 362.86 113.612Z" fill="#0D1F2D"/>
<path d="M337.576 143.357L346.5 134.434C346.697 134.236 346.808 133.969 346.808 133.69C346.808 133.411 346.697 133.143 346.5 132.946L342.038 128.484C341.841 128.287 341.573 128.176 341.294 128.176C341.016 128.176 340.748 128.287 340.551 128.484L331.627 137.408C331.43 137.605 331.319 137.873 331.319 138.152C331.319 138.431 331.43 138.698 331.627 138.895L336.089 143.357C336.286 143.554 336.554 143.665 336.833 143.665C337.112 143.665 337.379 143.554 337.576 143.357ZM333.858 138.152L341.294 130.715L344.269 133.69L336.833 141.126L333.858 138.152Z" fill="#0D1F2D"/>
<path d="M436.879 90.8921L431.955 95.8155C429.961 97.8095 429.723 100.903 431.258 103.16C427.631 107.279 426.457 112.785 427.713 117.831L422.026 112.145C423.52 109.896 423.274 106.828 421.288 104.842L416.364 99.9184C415.913 99.467 415.175 99.467 414.723 99.9184L408.159 106.483C407.707 106.934 407.707 107.673 408.159 108.124L413.082 113.047C415.06 115.025 418.129 115.271 420.385 113.786L426.072 119.472C421.033 118.209 415.519 119.39 411.4 123.017C409.143 121.483 406.05 121.721 404.056 123.715L399.132 128.638C398.681 129.09 398.681 129.828 399.132 130.279L405.697 136.844C406.148 137.295 406.887 137.295 407.338 136.844L412.262 131.92C414.231 129.951 414.477 126.915 413.025 124.658C418.194 120.195 425.891 120.162 431.094 124.576L424.57 131.1C424.119 131.551 424.119 132.29 424.57 132.741C425.021 133.192 425.76 133.192 426.211 132.741C427.902 131.051 428.673 130.279 431.135 132.741L432.776 134.382C436.961 138.567 436.756 141.595 436.526 144.795C436.501 145.148 436.477 145.501 436.46 145.846C436.288 149.07 437.461 152.197 439.685 154.42C444.018 158.753 451.074 158.753 455.407 154.42L461.848 147.979C466.173 143.655 466.173 136.598 461.84 132.265C459.617 130.041 456.49 128.868 453.265 129.04C452.921 129.057 452.568 129.081 452.215 129.106C449.015 129.336 445.987 129.541 441.802 125.356L440.161 123.715C437.699 121.253 438.47 120.482 440.161 118.791C440.612 118.34 440.612 117.602 440.161 117.15C439.71 116.699 438.971 116.699 438.52 117.15L432.817 122.853C428.41 117.643 428.443 109.962 432.899 104.784C435.155 106.237 438.191 105.991 440.161 104.021L445.084 99.0978C445.536 98.6465 445.536 97.908 445.084 97.4566L438.52 90.8921C438.068 90.4408 437.33 90.4408 436.879 90.8921ZM410.62 130.279L406.518 134.382L404.876 132.741L407.338 130.279C407.789 129.828 407.789 129.09 407.338 128.638C406.887 128.187 406.148 128.187 405.697 128.638L403.235 131.1L401.594 129.459L405.697 125.356C407.051 124.002 409.266 124.002 410.62 125.356C411.974 126.71 411.974 128.925 410.62 130.279ZM414.723 111.406L410.62 107.303L412.262 105.662L414.723 108.124C415.175 108.575 415.913 108.575 416.364 108.124C416.816 107.673 416.816 106.934 416.364 106.483L413.903 104.021L415.544 102.38L419.647 106.483C421.001 107.837 421.001 110.052 419.647 111.406C418.293 112.76 416.077 112.76 414.723 111.406ZM452.379 131.42C452.716 131.395 453.052 131.371 453.397 131.354C455.965 131.215 458.46 132.15 460.216 133.906C463.629 137.336 463.629 142.916 460.199 146.346L453.758 152.788C450.336 156.209 444.756 156.209 441.326 152.779C439.57 151.023 438.643 148.537 438.774 145.96C438.799 145.624 438.823 145.288 438.84 144.943C439.086 141.546 439.349 137.673 434.417 132.741L432.776 131.1C431.693 130.017 430.724 129.393 429.863 129.09L436.509 122.443C436.813 123.305 437.437 124.273 438.52 125.356L440.161 126.997C445.092 131.929 448.966 131.666 452.379 131.42ZM438.52 102.38C437.166 103.734 434.95 103.734 433.596 102.38C432.242 101.026 432.242 98.8106 433.596 97.4566L437.699 93.3538L439.34 94.9949L436.879 97.4566C436.427 97.908 436.427 98.6465 436.879 99.0978C437.33 99.5491 438.068 99.5491 438.52 99.0978L440.981 96.6361L442.623 98.2772L438.52 102.38Z" fill="#0D1F2D"/>
<path d="M113.479 107.396C113.383 107.199 113.228 107.036 113.035 106.932C112.842 106.827 112.621 106.786 112.403 106.813C112.185 106.841 111.981 106.935 111.82 107.085C111.659 107.234 111.548 107.429 111.504 107.645C111.057 109.813 110.01 111.662 108.208 113.464C103.39 118.282 95.456 118.187 90.5213 113.253C86.801 109.532 85.6928 103.62 87.8264 98.8751C87.916 98.6762 87.9415 98.4543 87.8995 98.2403C87.8574 98.0262 87.7498 97.8305 87.5916 97.6803C87.4334 97.5301 87.2323 97.4328 87.0164 97.402C86.8004 97.3711 86.5802 97.4081 86.3862 97.508C84.5844 98.4344 82.9549 99.9458 81.5986 101.302C73.9688 108.932 74.0999 121.477 81.8907 129.268C83.0625 130.442 84.3732 131.468 85.7936 132.325C84.5479 132.903 83.4134 133.695 82.442 134.666C77.875 139.233 77.8293 146.618 82.3398 151.128C82.9582 151.746 83.6465 152.289 84.3908 152.748C83.1573 154.458 82.5005 156.516 82.5155 158.625C82.5218 161.19 83.5451 163.647 85.361 165.459C89.1882 169.286 95.4536 169.247 99.3278 165.373L122.573 142.128C126.794 137.907 126.836 131.082 122.667 126.913C121.517 125.768 120.121 124.901 118.584 124.379C117.048 123.856 115.412 123.693 113.803 123.901C116.156 118.734 116.071 112.721 113.479 107.396ZM121.18 128.401C124.528 131.749 124.486 137.24 121.086 140.641L97.8405 163.886C94.7864 166.94 89.8553 166.978 86.8483 163.971C85.4248 162.551 84.623 160.623 84.6187 158.612C84.6058 156.582 85.3796 154.625 86.7777 153.153C86.8917 153.032 86.9754 152.886 87.0219 152.727C87.0685 152.567 87.0766 152.399 87.0456 152.236C87.0146 152.072 86.9453 151.919 86.8435 151.788C86.7417 151.656 86.6102 151.551 86.4598 151.48C85.4822 151.024 84.5913 150.402 83.8268 149.641C80.1365 145.951 80.1824 139.9 83.929 136.154C86.7529 133.33 91.068 132.528 94.6659 134.159C94.7971 134.218 94.9391 134.25 95.0831 134.252C95.2272 134.255 95.3701 134.227 95.5032 134.172C95.6362 134.117 95.7565 134.035 95.8565 133.931C95.9566 133.828 96.0343 133.705 96.0849 133.57C96.4342 132.63 96.982 131.776 97.6911 131.067C100.023 128.736 103.678 128.342 106.382 130.131C106.614 130.285 106.897 130.34 107.17 130.285C107.442 130.23 107.682 130.07 107.836 129.839C108.159 129.356 108.529 128.906 108.939 128.494C112.34 125.094 117.831 125.052 121.18 128.401ZM111.063 124.612C109.348 125.309 107.838 126.431 106.676 127.872C103.259 126.136 98.9974 126.787 96.204 129.581C95.5373 130.246 94.9788 131.012 94.5491 131.85C92.6306 131.193 90.5736 131.047 88.5816 131.429C86.6462 130.528 84.8848 129.293 83.378 127.781C76.4072 120.81 76.2763 109.599 83.0859 102.789C83.6587 102.217 84.2818 101.615 84.9385 101.055C83.9753 105.894 85.4761 111.182 89.034 114.74C94.7888 120.495 104.058 120.59 109.696 114.951C110.984 113.663 111.944 112.345 112.617 110.923C114.039 115.544 113.504 120.484 111.063 124.612Z" fill="#0D1F2D"/>
<path d="M96.7635 99.5227C96.5663 99.7199 96.4555 99.9874 96.4555 100.266C96.4555 100.545 96.5663 100.813 96.7635 101.01L97.9627 102.209L96.2932 103.044C96.1683 103.105 96.0567 103.19 95.9648 103.294C95.873 103.398 95.8028 103.52 95.7582 103.652C95.7136 103.783 95.6955 103.922 95.705 104.061C95.7145 104.2 95.7514 104.335 95.8135 104.459C95.8757 104.584 95.9619 104.694 96.0671 104.785C96.1723 104.876 96.2944 104.945 96.4265 104.988C96.5586 105.032 96.6979 105.048 96.8364 105.037C96.975 105.027 97.11 104.988 97.2337 104.925L98.9768 104.053L99.4504 106.421C99.4768 106.558 99.5299 106.687 99.6065 106.802C99.6832 106.918 99.7819 107.017 99.897 107.094C100.012 107.171 100.141 107.225 100.277 107.252C100.413 107.279 100.553 107.279 100.689 107.252C100.825 107.225 100.954 107.171 101.069 107.094C101.184 107.017 101.283 106.917 101.359 106.802C101.436 106.686 101.489 106.557 101.515 106.421C101.542 106.285 101.541 106.145 101.513 106.009L101.079 103.838L103.25 104.272C103.523 104.325 103.806 104.268 104.037 104.113C104.267 103.958 104.428 103.718 104.482 103.446C104.537 103.173 104.481 102.89 104.327 102.659C104.174 102.427 103.935 102.266 103.662 102.21L101.294 101.736L102.166 99.9929C102.287 99.7438 102.306 99.4569 102.217 99.1944C102.128 98.9319 101.939 98.7152 101.691 98.5912C101.443 98.4673 101.156 98.4462 100.893 98.5326C100.63 98.619 100.411 98.8058 100.285 99.0524L99.4499 100.722L98.2508 99.5227C98.0536 99.3254 97.7861 99.2146 97.5072 99.2146C97.2283 99.2146 96.9608 99.3254 96.7635 99.5227Z" fill="#0D1F2D"/>
<path d="M68.9607 144.596L67.2912 145.431C67.1663 145.492 67.0547 145.577 66.9629 145.682C66.8711 145.786 66.8008 145.907 66.7562 146.039C66.7116 146.171 66.6936 146.31 66.7031 146.448C66.7126 146.587 66.7495 146.722 66.8116 146.847C66.8738 146.971 66.9599 147.082 67.0651 147.173C67.1703 147.263 67.2925 147.332 67.4246 147.376C67.5566 147.419 67.6959 147.436 67.8345 147.425C67.973 147.414 68.1081 147.376 68.2318 147.312L69.9749 146.441L70.4485 148.809C70.4749 148.945 70.528 149.074 70.6046 149.19C70.6813 149.305 70.78 149.405 70.8951 149.482C71.0101 149.559 71.1394 149.613 71.2753 149.64C71.4112 149.667 71.5511 149.667 71.687 149.64C71.8229 149.612 71.952 149.559 72.0671 149.481C72.1821 149.404 72.2808 149.305 72.3573 149.189C72.4339 149.074 72.4869 148.944 72.5133 148.808C72.5396 148.672 72.5388 148.532 72.5109 148.397L72.0767 146.225L74.2482 146.66C74.3839 146.687 74.5238 146.688 74.6599 146.662C74.7959 146.636 74.9254 146.583 75.0409 146.506C75.1564 146.429 75.2557 146.331 75.3329 146.216C75.4102 146.101 75.4639 145.971 75.4911 145.836C75.5183 145.7 75.5183 145.56 75.4912 145.424C75.4642 145.288 75.4105 145.159 75.3333 145.044C75.2561 144.929 75.1569 144.83 75.0415 144.753C74.926 144.677 74.7966 144.624 74.6605 144.597L72.2925 144.123L73.164 142.38C73.2855 142.131 73.3038 141.844 73.2148 141.582C73.1259 141.319 72.937 141.103 72.6891 140.979C72.4412 140.855 72.1544 140.834 71.8911 140.92C71.6278 141.006 71.4092 141.193 71.2828 141.44L70.448 143.109L69.2489 141.91C69.0516 141.713 68.7842 141.602 68.5052 141.602C68.2263 141.602 67.9588 141.713 67.7616 141.91C67.5644 142.107 67.4536 142.375 67.4536 142.654C67.4536 142.933 67.5644 143.2 67.7616 143.397L68.9607 144.596Z" fill="#0D1F2D"/>
<path d="M60.5313 129.556C60.8048 129.501 61.0454 129.34 61.2001 129.108C61.3548 128.876 61.4111 128.592 61.3564 128.318L60.9221 126.147L63.0935 126.581C63.3664 126.634 63.6491 126.577 63.8799 126.422C64.1108 126.268 64.271 126.028 64.3255 125.755C64.3799 125.483 64.3243 125.2 64.1707 124.968C64.0172 124.736 63.7781 124.575 63.5059 124.519L61.1378 124.045L62.0094 122.302C62.1309 122.053 62.1491 121.766 62.0602 121.504C61.9713 121.241 61.7823 121.024 61.5344 120.9C61.2866 120.777 60.9998 120.755 60.7365 120.842C60.4731 120.928 60.2545 121.115 60.1282 121.362L59.2933 123.031L58.0942 121.832C57.897 121.635 57.6295 121.524 57.3506 121.524C57.0717 121.524 56.8042 121.635 56.6069 121.832C56.4097 122.029 56.2989 122.297 56.2989 122.576C56.2989 122.854 56.4097 123.122 56.6069 123.319L57.8061 124.518L56.1366 125.353C55.8899 125.479 55.7031 125.698 55.6168 125.961C55.5304 126.225 55.5515 126.511 55.6754 126.759C55.7994 127.007 56.0161 127.196 56.2786 127.285C56.5411 127.374 56.828 127.356 57.0771 127.234L58.8202 126.363L59.2939 128.731C59.3486 129.004 59.5097 129.245 59.7417 129.4C59.9738 129.554 60.2578 129.611 60.5313 129.556Z" fill="#0D1F2D"/>
<path d="M94.5324 89.8554C94.9431 89.4447 94.9431 88.7788 94.5324 88.3681C94.1217 87.9574 93.4559 87.9574 93.0452 88.3681C92.6345 88.7788 92.6345 89.4447 93.0452 89.8554C93.4559 90.2661 94.1217 90.2661 94.5324 89.8554Z" fill="#0D1F2D"/>
<path d="M75.1979 131.499C75.6086 131.088 75.6086 130.423 75.1979 130.012C74.7872 129.601 74.1214 129.601 73.7107 130.012C73.3 130.423 73.3 131.088 73.7107 131.499C74.1214 131.91 74.7872 131.91 75.1979 131.499Z" fill="#0D1F2D"/>
<path d="M72.2234 106.215C72.6341 105.805 72.6341 105.139 72.2234 104.728C71.8127 104.317 71.1468 104.317 70.7361 104.728C70.3254 105.139 70.3254 105.805 70.7361 106.215C71.1468 106.626 71.8127 106.626 72.2234 106.215Z" fill="#0D1F2D"/>
<path d="M122.047 114.395C122.458 113.985 122.458 113.319 122.047 112.908C121.637 112.498 120.971 112.498 120.56 112.908C120.149 113.319 120.149 113.985 120.56 114.395C120.971 114.806 121.637 114.806 122.047 114.395Z" fill="#0D1F2D"/>
<path d="M166.231 78.3335C166.642 77.9228 166.642 77.2569 166.231 76.8462C165.82 76.4355 165.154 76.4355 164.744 76.8462C164.333 77.2569 164.333 77.9228 164.744 78.3335C165.154 78.7442 165.82 78.7442 166.231 78.3335Z" fill="#0D1F2D"/>
<path d="M222.231 164.334C222.642 163.923 222.642 163.257 222.231 162.846C221.82 162.436 221.154 162.436 220.744 162.846C220.333 163.257 220.333 163.923 220.744 164.334C221.154 164.744 221.82 164.744 222.231 164.334Z" fill="#0D1F2D"/>
<path d="M148.231 170.334C148.642 169.923 148.642 169.257 148.231 168.846C147.82 168.436 147.154 168.436 146.744 168.846C146.333 169.257 146.333 169.923 146.744 170.334C147.154 170.744 147.82 170.744 148.231 170.334Z" fill="#0D1F2D"/>
<path d="M22.2309 115.334C22.6416 114.923 22.6416 114.257 22.2309 113.846C21.8202 113.436 21.1543 113.436 20.7436 113.846C20.3329 114.257 20.3329 114.923 20.7436 115.334C21.1543 115.744 21.8202 115.744 22.2309 115.334Z" fill="#0D1F2D"/>
<path d="M270.231 23.3335C270.642 22.9228 270.642 22.257 270.231 21.8463C269.82 21.4356 269.154 21.4356 268.744 21.8463C268.333 22.257 268.333 22.9228 268.744 23.3335C269.154 23.7442 269.82 23.7442 270.231 23.3335Z" fill="#0D1F2D"/>
<path d="M90.2309 19.3335C90.6416 18.9228 90.6416 18.2569 90.2309 17.8462C89.8202 17.4355 89.1543 17.4355 88.7436 17.8462C88.3329 18.2569 88.3329 18.9228 88.7436 19.3335C89.1543 19.7442 89.8202 19.7442 90.2309 19.3335Z" fill="#0D1F2D"/>
<path d="M339.231 84.3335C339.642 83.9228 339.642 83.2569 339.231 82.8462C338.82 82.4355 338.154 82.4355 337.744 82.8462C337.333 83.2569 337.333 83.9228 337.744 84.3335C338.154 84.7442 338.82 84.7442 339.231 84.3335Z" fill="#0D1F2D"/>
<path d="M400.231 164.334C400.642 163.923 400.642 163.257 400.231 162.846C399.82 162.436 399.154 162.436 398.744 162.846C398.333 163.257 398.333 163.923 398.744 164.334C399.154 164.744 399.82 164.744 400.231 164.334Z" fill="#0D1F2D"/>
<path d="M456.231 59.3335C456.642 58.9228 456.642 58.257 456.231 57.8463C455.82 57.4356 455.154 57.4356 454.744 57.8463C454.333 58.257 454.333 58.9228 454.744 59.3335C455.154 59.7442 455.82 59.7442 456.231 59.3335Z" fill="#0D1F2D"/>
<path d="M341.231 20.3335C341.642 19.9228 341.642 19.2569 341.231 18.8462C340.82 18.4355 340.154 18.4355 339.744 18.8462C339.333 19.2569 339.333 19.9228 339.744 20.3335C340.154 20.7442 340.82 20.7442 341.231 20.3335Z" fill="#0D1F2D"/>
<path d="M296.439 110.935C296.66 111.082 296.931 111.135 297.192 111.083C297.453 111.031 297.682 110.878 297.829 110.657L299 108.905L300.171 110.657C300.319 110.876 300.548 111.028 300.808 111.079C301.068 111.13 301.337 111.077 301.558 110.93C301.778 110.784 301.931 110.556 301.984 110.297C302.037 110.038 301.984 109.769 301.839 109.548L300.562 107.637L302.324 107.051C302.574 106.965 302.779 106.785 302.896 106.548C303.013 106.312 303.032 106.039 302.949 105.789C302.865 105.539 302.686 105.332 302.45 105.213C302.215 105.094 301.941 105.073 301.69 105.154L300.002 105.715V104.103C300.002 103.837 299.897 103.583 299.709 103.395C299.521 103.208 299.266 103.103 299 103.103C298.734 103.103 298.479 103.208 298.291 103.395C298.103 103.583 297.998 103.837 297.998 104.103V105.715L296.31 105.154C296.059 105.073 295.785 105.094 295.55 105.213C295.314 105.332 295.135 105.539 295.051 105.789C294.968 106.039 294.987 106.312 295.104 106.548C295.221 106.785 295.426 106.965 295.676 107.051L297.438 107.637L296.161 109.548C296.014 109.769 295.96 110.039 296.012 110.299C296.065 110.559 296.218 110.787 296.439 110.935Z" fill="#0D1F2D"/>
<path d="M300.436 142.077C300.014 142.499 299.687 143.007 299.476 143.565C299.265 144.124 299.176 144.721 299.215 145.317C298.362 145.263 297.512 145.469 296.78 145.91C296.047 146.35 295.467 147.003 295.115 147.782C294.763 148.561 294.657 149.429 294.81 150.269C294.964 151.11 295.37 151.884 295.975 152.488C297.111 153.624 300.461 153.999 301.46 154.088C305.116 154.41 306.561 153.8 307.129 153.232C308.159 152.202 308.163 149.581 307.985 147.562C307.897 146.563 307.522 143.213 306.386 142.077C305.596 141.289 304.526 140.847 303.411 140.847C302.296 140.847 301.226 141.289 300.436 142.077ZM305.88 147.637C306.113 150.124 305.819 151.477 305.64 151.743C305.374 151.922 304.021 152.215 301.535 151.983C299.145 151.759 297.703 151.233 297.462 151.001C297.067 150.606 296.846 150.071 296.846 149.514C296.846 148.956 297.067 148.421 297.462 148.026C297.856 147.632 298.391 147.41 298.949 147.41C299.507 147.41 300.042 147.632 300.436 148.026L300.637 148.227C300.834 148.424 301.102 148.535 301.381 148.535C301.66 148.535 301.927 148.424 302.124 148.227C302.322 148.03 302.432 147.762 302.432 147.483C302.432 147.204 302.322 146.937 302.124 146.74L301.924 146.539C301.529 146.145 301.308 145.61 301.308 145.052C301.308 144.494 301.529 143.959 301.924 143.564C302.318 143.17 302.853 142.948 303.411 142.948C303.969 142.948 304.504 143.17 304.898 143.564C305.13 143.805 305.657 145.247 305.88 147.637Z" fill="#0D1F2D"/>
<path d="M180.436 77.0772C180.014 77.4993 179.687 78.0066 179.476 78.5653C179.265 79.124 179.176 79.7213 179.215 80.3171C178.362 80.2627 177.512 80.4694 176.78 80.9098C176.047 81.3502 175.467 82.0034 175.115 82.7822C174.763 83.561 174.657 84.4286 174.81 85.2694C174.964 86.1101 175.37 86.8841 175.975 87.4881C177.111 88.6241 180.46 88.9995 181.46 89.0877C185.115 89.4104 186.561 88.8003 187.129 88.2318C188.159 87.2018 188.163 84.5805 187.985 82.5623C187.897 81.5631 187.522 78.2132 186.386 77.0772C185.596 76.2894 184.526 75.847 183.411 75.847C182.296 75.847 181.226 76.2894 180.436 77.0772ZM185.88 82.6372C186.113 85.1239 185.819 86.4767 185.64 86.743C185.374 86.9218 184.021 87.2152 181.535 86.9828C179.145 86.7594 177.703 86.2328 177.462 86.0009C177.067 85.6064 176.846 85.0714 176.846 84.5136C176.846 83.9557 177.067 83.4207 177.462 83.0263C177.856 82.6318 178.391 82.4102 178.949 82.4102C179.507 82.4102 180.042 82.6318 180.436 83.0263L180.637 83.2269C180.834 83.4241 181.102 83.5349 181.381 83.5349C181.66 83.5349 181.927 83.4241 182.124 83.2269C182.322 83.0297 182.432 82.7622 182.432 82.4833C182.432 82.2043 182.322 81.9368 182.124 81.7396L181.924 81.539C181.529 81.1446 181.308 80.6096 181.308 80.0517C181.308 79.4939 181.529 78.9589 181.924 78.5645C182.318 78.17 182.853 77.9484 183.411 77.9484C183.969 77.9484 184.504 78.17 184.898 78.5645C185.13 78.8051 185.657 80.2473 185.88 82.6372Z" fill="#0D1F2D"/>
<path d="M434.436 50.0772C434.014 50.4993 433.687 51.0066 433.476 51.5653C433.265 52.124 433.176 52.7213 433.215 53.3171C432.362 53.2627 431.512 53.4694 430.78 53.9098C430.047 54.3502 429.467 55.0034 429.115 55.7822C428.763 56.5611 428.657 57.4286 428.81 58.2694C428.964 59.1101 429.37 59.8841 429.975 60.4881C431.111 61.6241 434.461 61.9995 435.46 62.0877C439.116 62.4103 440.561 61.8003 441.129 61.2318C442.159 60.2018 442.163 57.5805 441.985 55.5623C441.897 54.5631 441.522 51.2132 440.386 50.0772C439.596 49.2894 438.526 48.847 437.411 48.847C436.296 48.847 435.226 49.2894 434.436 50.0772ZM439.88 55.6372C440.113 58.1239 439.819 59.4767 439.64 59.743C439.374 59.9218 438.021 60.2152 435.535 59.9828C433.145 59.7594 431.703 59.2328 431.462 59.0009C431.067 58.6064 430.846 58.0714 430.846 57.5136C430.846 56.9557 431.067 56.4208 431.462 56.0263C431.856 55.6319 432.391 55.4102 432.949 55.4102C433.507 55.4102 434.042 55.6318 434.436 56.0263L434.637 56.2269C434.834 56.4241 435.102 56.5349 435.381 56.5349C435.66 56.5349 435.927 56.4241 436.124 56.2269C436.322 56.0297 436.432 55.7622 436.432 55.4833C436.432 55.2043 436.322 54.9368 436.124 54.7396L435.924 54.539C435.529 54.1446 435.308 53.6096 435.308 53.0517C435.308 52.4939 435.529 51.9589 435.924 51.5645C436.318 51.17 436.853 50.9484 437.411 50.9484C437.969 50.9484 438.504 51.17 438.898 51.5645C439.13 51.8051 439.657 53.2473 439.88 55.6372Z" fill="#0D1F2D"/>
<path d="M23.4364 138.077C23.0141 138.499 22.6866 139.007 22.4759 139.565C22.2652 140.124 22.1761 140.721 22.2145 141.317C21.3616 141.263 20.5124 141.469 19.7799 141.91C19.0475 142.35 18.4666 143.003 18.1147 143.782C17.7628 144.561 17.6566 145.429 17.8102 146.269C17.9639 147.11 18.37 147.884 18.9746 148.488C20.1106 149.624 23.4605 149.999 24.4597 150.088C28.1155 150.41 29.5607 149.8 30.1292 149.232C31.1591 148.202 31.1628 145.581 30.9851 143.562C30.8969 142.563 30.5215 139.213 29.3855 138.077C28.596 137.289 27.5263 136.847 26.411 136.847C25.2957 136.847 24.2259 137.289 23.4364 138.077ZM28.8802 143.637C29.1126 146.124 28.8192 147.477 28.6404 147.743C28.3741 147.922 27.0213 148.215 24.5346 147.983C22.1447 147.759 20.7025 147.233 20.4619 147.001C20.0674 146.606 19.8458 146.071 19.8458 145.514C19.8458 144.956 20.0674 144.421 20.4619 144.026C20.8563 143.632 21.3913 143.41 21.9492 143.41C22.507 143.41 23.042 143.632 23.4364 144.026L23.637 144.227C23.8343 144.424 24.1017 144.535 24.3807 144.535C24.6596 144.535 24.9271 144.424 25.1243 144.227C25.3215 144.03 25.4323 143.762 25.4323 143.483C25.4323 143.204 25.3215 142.937 25.1243 142.74L24.9237 142.539C24.5293 142.145 24.3077 141.61 24.3077 141.052C24.3077 140.494 24.5293 139.959 24.9237 139.564C25.3182 139.17 25.8532 138.948 26.411 138.948C26.9688 138.948 27.5038 139.17 27.8983 139.564C28.1302 139.805 28.6568 141.247 28.8802 143.637Z" fill="#0D1F2D"/>
<path d="M68.4393 21.9346C68.6605 22.0817 68.9312 22.1352 69.1918 22.0832C69.4525 22.0312 69.6818 21.878 69.8293 21.6574L71 19.9054L72.1707 21.6574C72.3189 21.8765 72.5479 22.0282 72.8078 22.0793C73.0677 22.1304 73.3374 22.0768 73.5578 21.9302C73.7782 21.7836 73.9314 21.5559 73.9841 21.2968C74.0367 21.0378 73.9844 20.7685 73.8386 20.5479L72.5619 18.6372L74.324 18.0512C74.5737 17.9654 74.7794 17.7848 74.8964 17.5485C75.0133 17.3122 75.0321 17.0394 74.9485 16.7894C74.865 16.5395 74.6859 16.3325 74.4503 16.2135C74.2146 16.0945 73.9414 16.0731 73.69 16.154L72.0023 16.7151V15.1026C72.0023 14.8374 71.8967 14.583 71.7088 14.3955C71.5208 14.2079 71.2658 14.1026 71 14.1026C70.7342 14.1026 70.4792 14.2079 70.2912 14.3955C70.1033 14.583 69.9977 14.8374 69.9977 15.1026V16.7151L68.31 16.1538C68.0586 16.073 67.7854 16.0943 67.5497 16.2133C67.314 16.3323 67.135 16.5393 67.0514 16.7893C66.9679 17.0393 66.9867 17.3121 67.1036 17.5484C67.2206 17.7846 67.4263 17.9653 67.676 18.0511L69.4381 18.6371L68.1614 20.5479C68.0139 20.7685 67.9603 21.0386 68.0125 21.2986C68.0646 21.5587 68.2181 21.7875 68.4393 21.9346Z" fill="#0D1F2D"/>
<path d="M45.5714 104.103H43V106.674H45.5714V104.103Z" fill="#0D1F2D"/>
<path d="M320.571 90.1026H318V92.674H320.571V90.1026Z" fill="#0D1F2D"/>
<path d="M48.5714 166.103H46V168.674H48.5714V166.103Z" fill="#0D1F2D"/>
<path d="M393.571 104.103H391V106.674H393.571V104.103Z" fill="#0D1F2D"/>
<path d="M292.439 20.9346C292.66 21.0817 292.931 21.1352 293.192 21.0832C293.453 21.0312 293.682 20.878 293.829 20.6574L295 18.9054L296.171 20.6574C296.319 20.8765 296.548 21.0282 296.808 21.0793C297.068 21.1304 297.337 21.0768 297.558 20.9302C297.778 20.7836 297.931 20.5559 297.984 20.2968C298.037 20.0378 297.984 19.7685 297.839 19.5479L296.562 17.6372L298.324 17.0512C298.574 16.9654 298.779 16.7848 298.896 16.5485C299.013 16.3122 299.032 16.0394 298.949 15.7894C298.865 15.5395 298.686 15.3325 298.45 15.2135C298.215 15.0945 297.941 15.0731 297.69 15.154L296.002 15.7151V14.1026C296.002 13.8374 295.897 13.583 295.709 13.3955C295.521 13.2079 295.266 13.1026 295 13.1026C294.734 13.1026 294.479 13.2079 294.291 13.3955C294.103 13.583 293.998 13.8374 293.998 14.1026V15.7151L292.31 15.1538C292.059 15.073 291.785 15.0943 291.55 15.2133C291.314 15.3323 291.135 15.5393 291.051 15.7893C290.968 16.0393 290.987 16.3121 291.104 16.5484C291.221 16.7846 291.426 16.9653 291.676 17.0511L293.438 17.6371L292.161 19.5479C292.014 19.7685 291.96 20.0386 292.012 20.2986C292.065 20.5587 292.218 20.7875 292.439 20.9346Z" fill="#0D1F2D"/>
<path d="M245.571 31.1026H243V33.674H245.571V31.1026Z" fill="#0D1F2D"/>
<path d="M222.439 138.935C222.66 139.082 222.931 139.135 223.192 139.083C223.453 139.031 223.682 138.878 223.829 138.657L225 136.905L226.171 138.657C226.319 138.876 226.548 139.028 226.808 139.079C227.068 139.13 227.337 139.077 227.558 138.93C227.778 138.784 227.931 138.556 227.984 138.297C228.037 138.038 227.984 137.769 227.839 137.548L226.562 135.637L228.324 135.051C228.574 134.965 228.779 134.785 228.896 134.548C229.013 134.312 229.032 134.039 228.949 133.789C228.865 133.539 228.686 133.332 228.45 133.213C228.215 133.094 227.941 133.073 227.69 133.154L226.002 133.715V132.103C226.002 131.837 225.897 131.583 225.709 131.395C225.521 131.208 225.266 131.103 225 131.103C224.734 131.103 224.479 131.208 224.291 131.395C224.103 131.583 223.998 131.837 223.998 132.103V133.715L222.31 133.154C222.059 133.073 221.785 133.094 221.55 133.213C221.314 133.332 221.135 133.539 221.051 133.789C220.968 134.039 220.987 134.312 221.104 134.548C221.221 134.785 221.426 134.965 221.676 135.051L223.438 135.637L222.161 137.548C222.014 137.769 221.96 138.039 222.012 138.299C222.065 138.559 222.218 138.787 222.439 138.935Z" fill="#0D1F2D"/>
<path d="M448.439 83.9346C448.66 84.0817 448.931 84.1352 449.192 84.0832C449.453 84.0312 449.682 83.878 449.829 83.6574L451 81.9053L452.171 83.6574C452.319 83.8765 452.548 84.0282 452.808 84.0793C453.068 84.1304 453.337 84.0768 453.558 83.9302C453.778 83.7836 453.931 83.5559 453.984 83.2968C454.037 83.0378 453.984 82.7685 453.839 82.5479L452.562 80.6372L454.324 80.0512C454.574 79.9654 454.779 79.7848 454.896 79.5485C455.013 79.3122 455.032 79.0394 454.949 78.7894C454.865 78.5394 454.686 78.3325 454.45 78.2135C454.215 78.0945 453.941 78.0731 453.69 78.154L452.002 78.7151V77.1026C452.002 76.8374 451.897 76.583 451.709 76.3955C451.521 76.2079 451.266 76.1026 451 76.1026C450.734 76.1026 450.479 76.2079 450.291 76.3955C450.103 76.583 449.998 76.8374 449.998 77.1026V78.7151L448.31 78.1538C448.059 78.073 447.785 78.0943 447.55 78.2133C447.314 78.3323 447.135 78.5393 447.051 78.7893C446.968 79.0393 446.987 79.3121 447.104 79.5484C447.221 79.7846 447.426 79.9653 447.676 80.0511L449.438 80.6371L448.161 82.5479C448.014 82.7685 447.96 83.0386 448.012 83.2987C448.065 83.5587 448.218 83.7875 448.439 83.9346Z" fill="#0D1F2D"/>
</svg>
